<svg xmlns="http://www.w3.org/2000/svg" viewBox="0 0 170.81 169.24"><defs><style>.cls-1{fill:#f9c5db;}.cls-2{fill:#bde283;}.cls-3{fill:#b4f777;}.cls-4{fill:#ebd9c3;}.cls-5{fill:#c89a0b;}</style></defs><g id="Layer_2" data-name="Layer 2"><g id="Layer_1-2" data-name="Layer 1"><path class="cls-1" d="M53,107c3.61.48,5.39,2,5.22,6.19a12.19,12.19,0,0,0,2.73,8.07c3.64,3.93,3.33,7.56.21,11-6.87,7.46-12.52,16.17-22.42,20.56-6,2.65-11.3,6.79-17.15,9.82-4.38,2.27-9.42,3.33-13.6,5.87-3.62,2.19-5.42-.55-8-1.47l2.1-4.45,2-1.46,1-1h0l1-3,.1-3.14-2-4,.94-1.65c2.17-1,4.3-2.83,6.53-3,4.24-.27,5.3-2.53,5.35-6.08-.28-1.39-.55-2.78-.83-4.17.32-.95.63-1.89.95-2.83l3.08-3.24c.72-3.06,2.64-6.27-1.07-8.79l-.12-5,7.77-7,4.34,2.23-.23,2,8.09-2.22L41,110c.06,2.29.86,3.58,3.33,2.31s5.14-2.77,7.7-4.15l0-1.08A7.4,7.4,0,0,0,53,107Z"/><path class="cls-2" d="M110,50.94l-3.09-3.85-6.84-4a26.28,26.28,0,0,0,1.8-4.35c1.18-5.32,2.17-10.68,3.24-16l.79-1.57.1-.11,1.88-2c0-1,0-2,0-3l-5,0c-1.63,2.85-3.3,5.68-4.88,8.57-.78,1.42-1.4,2.93-2.09,4.4s-1.37,2.81-2.06,4.21c-.26.57-.53,1.13-.79,1.69L93,38.31l-5.23,6.74c-.51,1.34-1,2.69-1.52,4q-1.09,3-2.17,6.08l-2,3-1.17,3.1c-.61.8-1.23,1.59-1.85,2.39-.31.86-.63,1.71-1,2.56l-.22,4.94c-.08,1-.17,2-.26,3a3.37,3.37,0,0,1-.07.84l-.31,1.38L77.14,78c-.53,2-1.06,4-1.6,6,0,.37.06.75.08,1.12l3.44.07,2,.06,5.88-1.13c.64-3.85,1.41-7.67,1.86-11.54.39-3.37,1.2-6.17,5.16-6.64v-.81a26.1,26.1,0,0,0,4.14-2.61C102.11,58.69,106,54.79,110,50.94Z"/><path class="cls-3" d="M136.9,30.05l.89-1.06h-.06l.26-1.92c-.06-.34-.11-.67-.17-1s0-.66,0-1q.09-3,.19-6l-2.83,3.27V17.9c2.68-1.7,8.09,1.26,7.49-4.91-3.87-1.13-7.77-2.18-11.58-3.46a3.88,3.88,0,0,1-1.8-2.19C128,4,126.49,2,123.05,5.29a2.56,2.56,0,0,1-2.22.48c-3.38-1.44-6.76-2.93-10-4.64s-5.55-1.93-6.58,2.38c-.62,2.56-1.6,5-2.42,7.53q.54,2.54,1.06,5.07l5,0,0,3-1.88,2-.1.11-.79,1.57c-1.07,5.35-2.06,10.71-3.24,16a26.28,26.28,0,0,1-1.8,4.35l6.84,4L111,44.33a.9.9,0,0,1,.74-.32l3.17,1c2.16.69,3.82,2.43,5.93-1.24,1.25-2.19,5.9-2.41,9.1-3.54.42,1.16.76,2.08.91,2.48l9.3-2.69-3.25-8.93C136.91,30.73,136.9,30.39,136.9,30.05Z"/><path class="cls-3" d="M146.88,15.05a4.7,4.7,0,0,1-.09-.92l-1.75.11c-1.08,3-2.09,6.2-6.46,4.84L142.7,24,144.77,22l-.05-.12,2-4.09.09-1.91A1.41,1.41,0,0,1,146.88,15.05Z"/><path class="cls-4" d="M124.08,105.18c3.09-6.17-3.16-10.67-2.06-17.64L113.43,95c-2.77-4.73-5.58-8.91-7.74-13.42-1.54-3.22-8.59-9.28-12-9.35A96.92,96.92,0,0,0,91,82.37c-.52,3.35-2.06,2.72-4.07,1.68L81,85.19c2,2.64-1.28,3.1-1.92,4.65l.65,1-.74.23v0L79,93.06l5.17-1-5.17,1-1.27,1.2L76,95a1.69,1.69,0,0,1-.89.14l0,.08c.54,1,1.08,2,1.63,2.94a3.18,3.18,0,0,1,.34.78l2.14.5L81.59,99l-.77,1,.3,1-2,.92L77,101.22c-1.57,2.62-3.32,5.15-4.66,7.88-1.57,3.17-3.79,6.5-3.87,9.8-.08,3.63,2.48,6.42,6.82,7.35,4.68,1,7.49,4.24,7.42,8.88L77,137l3,2.05,1,.21,13.83-1.34H96l1.26-1.69L98.88,138l1.07,0,.39-1.25.74.48,1.83-3.12,3-1.22.91-1.4,1.13,1.14,1,.38h2l1.95,2.05c.91.56,2.36,1.78,2.64,1.55,1-.81,2.2-2.1,2.23-3.23a43.54,43.54,0,0,0-1-7.2,6.07,6.07,0,0,1-.83-.16h-1l-3-1.94,2-1c.39-2,.77-4,1.16-6a7.69,7.69,0,0,1-.06-1h0l2.85-3.17,5.91-3,0,.08.23-1.91,1-1.2C124.63,106.32,123.91,105.52,124.08,105.18Z"/><path class="cls-5" d="M151.94,121.2l-1.14,1.61c.36,1.74.73,3.49,1.09,5.23l.28-.2-.28.2a2.36,2.36,0,0,0-.21.83,2.22,2.22,0,0,0-.68.07c-1.06-1.33-2.12-2.67-3.19-4l-11,7.53-.06-.14a13.33,13.33,0,0,0-11.86,3.47l-1.24.86-.17.17-.93.78c-5.3,1.55-10.61,3.08-15.89,4.68-3.43,1-7.61,1.21-7.69,6.49l2,1.47,7.47-3.84,2.25-.7,5.14-1.66,21-9.92,1.91.82,0,0,6.9-2.3,2.18-.78,8.31.18,2.67-1.86a2.48,2.48,0,0,1,.94,0l1.92-1.13c.09-1,.17-2,.25-3l-9.23-4.91A4.52,4.52,0,0,0,151.94,121.2Z"/><path class="cls-5" d="M133.07,111.87c-.54,2.7-.79,4-1,5.26l.12,4.8,2.84.87,1.82,1.1c-.06-2.17-.13-4.33-.2-6.5Z"/><path class="cls-5" d="M167.76,63.22c-1.95-1.55-3.47-3.63-5.23-5.42-.95-1-2-1.85-3-2.76l-.71,0h0l-3.69,5.39-3.45-6c-.3-1.1-.61-2.2-.92-3.3v0L150,48.94l-.15-.13-4-.83c-1.69-.26-3.43-.93-5.05-.7-3,.41-5.85,1.35-9.68,2.3-2.25-3.33-4.33-.67-6.31,2.5l2.63,6.08c.74,3.16-1.19,2.31-2.83,1.9,0-1,0-2,0-2.94-3.27-.62-5.8-5.13-9.8-1.87L110,50.94c-4,3.85-7.87,7.75-11.92,11.51a26.1,26.1,0,0,1-4.14,2.61v.81l-.24,6.3c3.42.08,10.47,6.14,12,9.36,2.16,4.51,5,8.69,7.74,13.42L122,87.54c-1.1,7,5.15,11.47,2.06,17.64-.17.34.55,1.14.86,1.72,4,5,6.11.73,8.57-1.77a2.52,2.52,0,0,0,.32-.88l2.75-1.23-2.25,3.12L149.86,118a4.45,4.45,0,0,1,.88.26l3.87-3,5.12-3.2c6.08-9.35,4.66-19.81,3.84-29.95-.29-3.73-.07-5.06,3.63-5.35,1.21-.1,2.34-1.13,3.51-1.74C170.62,70.86,171.84,66.47,167.76,63.22Z"/></g></g></svg>