<svg xmlns="http://www.w3.org/2000/svg" viewBox="0 0 555.9 549.24"><defs><style>.cls-1{fill:#c7c7c7;}</style></defs><g id="Layer_2" data-name="Layer 2"><g id="Layer_1-2" data-name="Layer 1"><path class="cls-1" d="M0,166c1.26-1.53,2.82-2.88,3.69-4.63,1.22-2.45,1.64-5.38,2.93-7.76.89-1.63,2.66-2.71,4.08-4,5.72-5.15,11.51-10.22,17.13-15.5.62-.58.37-2.29.48-3.48.08-.91-.11-2.51.19-2.63a4,4,0,0,1,2.81.1c5,2.2,10,3.86,15.43,2.44A9.14,9.14,0,0,0,51,127.78c1.39-1.58,2.34-1.67,3.11.24,1.74,4.35,5.45,5.1,9,5.94,3,.71,5.7.28,5.87-4.45l2.6,1.51c.46,5.75,1.09,11.5,1.34,17.26.14,3.34.82,5.31,4.39,4.82,6.1-.86,12.22-1.49,18.33-2.27,5.08-.65,5.25-.7,5-6.22-.15-3.42,1.15-4.36,4-4.49,9.22-.43,18.43-1,27.64-1.62,13.45-.92,26.9-2,40.35-2.9a18.13,18.13,0,0,1,3,.26c.17,2.6.31,4.81.51,7.87l19-3.95c.54,8.26,1,15.5,1.56,23.84l39.48-6.91c1.46,10.53,2.81,20.32,4.17,30.1.33,2.34-.83,3.14-2.72,3.41-3.08.45-6.13,1.17-9.21,1.48-3.62.36-5.5,2-4.66,6.2-4.93,1.21-4.93,1.21-4.26,6.29a2.29,2.29,0,0,1,0,.37c-1.81.29-4.16-.05-5.25,1.07-.91,1,0,3.75-.58,5.43-.5,1.38-2,3.23-3.13,3.26-3.23.08-6.47-.73-9.71-1-1.69-.15-4.65-.49-4.88.16-1.16,3.29-3.83,2.26-5.8,3.09-1.81.75-4,1-5.4,2.26-3.66,3.36-7,7.16-10.43,10.79a30,30,0,0,1-3.24-.93c-3.11-1.26-6.13-2.78-9.29-3.85-4.52-1.52-7.89-.53-9.77,2.46l-.69.76c-.42,1.16-1.22,2.34-1.17,3.47.16,3.79-1.81,6-4.57,7.24a29.53,29.53,0,0,1-8.56,2.8c-3.21.4-4.84,1.72-4.58,5.57-6.59.3-12.91.47-19.22.91-13.09.91-26.17,2-39.26,3-7.23.55-14.47,1-21.7,1.67-9.09.87-18.18,1.95-27.26,2.94l-1.45,0-10.36.53c-.24-2.62-.69-5.24-.7-7.86C12.5,232,11.85,215.66,9,199.57c-.67-3.74-.75-8.38-2.83-10.86-3.51-4.18-5.28-8.27-4.81-13.82.09-1.16-.87-2.42-1.34-3.63V166Z"/><path class="cls-1" d="M331,426.38c-2.18-3.52-5.35-2.46-8.56-2.57-4.74-.16-9.45-1.17-14.17-1.9a3.09,3.09,0,0,1-1.22,1.18.86.86,0,0,1-.71.06c-.23.36-.46.65-.74.71-6.35,1.29-10.82,6.14-15.94,9.76-1.2.85-2.58,2.31-3.35-.49a27.58,27.58,0,0,1-2.35-2.59l-.42-.46,0-.06-.23-.26c-1.12-1.18-2.11-2.73-3.54-3.49l-1.21,0h0c-.79,1.87-3.43,2.12-5,2.32a.76.76,0,0,1-.46-.07c-2.27,1.57-4.54,3.17-6.91,4.55C259.4,437,253,441.75,249,448.83c-3.64,6.31-6.15,13.43-8.87,20.33-.8,2-1.65,2.64-3.54,2.54-5.39-.29-10.8-.42-16.21-.61v5.81l-67.46,1.65c-.22,5.67-.88,11.36-.53,17,.35,5.84,1.64,11.63,2.6,17.42.37,2.23,1.14,4.38,1.4,6.61.54,4.6,1,5.11,5.42,5.41,6.21.41,12.42.88,18.61,1.51,2.43.25,7.24,5.45,7.31,7.35.08,2.21-.68,3.4-2.82,3.17-5.85,1.47-10.36,5.6-15.23,9a5.74,5.74,0,0,0-1,1.12,2.72,2.72,0,0,0-.28.53,12.4,12.4,0,0,0,3.25.74q66.19.08,132.4.07a21.8,21.8,0,0,1,3.92.74h1.21a15.38,15.38,0,0,1,.4-2.35l.09-.33.39-1.9,0,0,0-.77c1.82-1.48,3.62-3,5.44-4.43.35-.28.7-.53,1.05-.8a2.84,2.84,0,0,0-1.06-2.05c-.64-.68-1.32-1.29-1.93-2s-1.13-1.46-1.72-2.15a7.61,7.61,0,0,1-1.61-2.64c-.55-.43-1.17-.89-1.13-1,.89-2,1.84-4,2.8-5.94a.65.65,0,0,1-.14-.64c.43-1.21,1.18-2.69,1-4a6.3,6.3,0,0,0-2.06-3.35c-1.22-1.09-4.08-3-3-5.12a1.28,1.28,0,0,1,0-.55c1.49-6.38,3.32-12.66,5.05-19l.93-.16,1.05,2.55c.5.41,1,.82,1.51,1.21a13.71,13.71,0,0,0,5.07,2.77,2.44,2.44,0,0,0,3.2-1.69,32.45,32.45,0,0,1-1.19-5.26c-.3-3.77-1.57-6.36-5.35-6.83-.6-.07-1.14-.77-1.7-1.18l0-2.29,0,0,2.15-6.88c-2.49-3.87-.3-8.64,4.81-9.83l1.38-2.28c-.95-2.1-1.88-4.23-2.86-6.32-2.34-5-2.29-5.41,1.47-9.61l-.74-8.71,8.08-1.15C330.71,431.66,330.88,428.93,331,426.38Z"/><path class="cls-1" d="M554.83,436.5c-2,.31-3.55.16-2.4-2.85.09-.23-.79-.9-1.22-1.36l-.09.1a11,11,0,0,1-2.81.88c-1.15,0-2.39-.68-3.48-.44-4.8,1.05-6.23-.21-6.1-5.69l-.14-.16c-2.36,1.45-2.78,0-2.66-2.16l-.18-.17c-1.53,0-3.55,1-3.38-2.13-2,.93-3.39,1.16-3-2.21.1-.92-.94-2.21-1.75-2.92-.24-.21-1.76.77-2.25,1.54a13.11,13.11,0,0,1-9.51,6.25c-.3-1.76-.48-3.53-.9-5.23-1-3.94-1.59-8.14-3.34-11.65-1-1.93-4-3.81-5.94-3.62-1.76.16-3.49,3-4.87,4.94a54.92,54.92,0,0,0-3.48,6.46L492,412.31c.39-2,.94-4.05,1.18-6.15s.2-3.9-2.15-5.21c-1.39-.77-2.57-3.21-2.77-5.05-.27-2.44.52-5,.85-7.5,2.72,1.5,5.11,5.85,9.38,2.23-4.84-1.17-5.19-5.27-5.63-10.08l23.39-2.41a8.29,8.29,0,0,0-.4-1.52c-6.52-10.86-13-21.76-19.65-32.49-1.14-1.84-3.28-4.21-5-4.2-12.71,0-25.42.61-38.13,1-6,.16-12.18,1.88-18-1.47-4.35-2.5-4.49-3.25-.67-7.07,1.17.73,2.66,1.19,3.51,2.26,2.88,3.62,6.64,3,10.27,2.77,1.76-.11,3.46-1.18,5.22-1.36,10.91-1.12,21.83-2,32.73-3.22,1.09-.12,3-1.44,3-2.16-.14-6.23-.64-12.44-1-18.65l-13.47,1.24-.08-.69,3.56-2.78c-2.34.19-3.72.58-5,.29-.76-.17-1.31-1.41-1.95-2.17h0c-3.86.89-5.77-1-5.82-4-1.52-1.23-3.1-2.18-3-2.49.38-1.19,1.12-2.78,2.06-3.13a18.53,18.53,0,0,1,6.11-.92c2.08,0,2.87-.74,2.79-3.08-.21-5.35-3.43-10.54-.77-16.05a.62.62,0,0,0,0-.37c-1.49-3.47.24-4.08,2.94-4.25,1.13-.07,3.14-1,3.16-1.56.19-4.94,0-9.89-.07-14.83l-1.16.07c.25,4,.58,8,.7,12,.06,1.84-.21,3.82-2.71,2.22l-1.43.7a7.83,7.83,0,0,1-1.3-2.51c-.41-4.4-.65-8.81-.95-13.22h-.26c-.13,1.34-.26,2.67-.38,3.86H459.85c-.78-4.41-6.63-3.47-7.23-8.36,2.41-1.85,2.07-4.44,1.9-7a10.94,10.94,0,0,1-2,2.73,14.44,14.44,0,0,1-2.86,1.82l0,.29-.76.05a18.06,18.06,0,0,1-7.05,1.4,21.5,21.5,0,0,1-5.11-.54,17.86,17.86,0,0,1-5-1l2-.12c-2.73-1.45-4.48-3.84-6.39-6.33-1.67-2.16-3.43-4.22-5.2-6.29l-.31-.34-.69-.76-.69-.76c-.11-.18-.23-.36-.34-.55l-.49-.58c-1-1.23-2-2.49-3-3.77l-.36-.4c-.23-.26-.47-.51-.7-.76s-.47-.5-.7-.76l-.7-.75-.7-.76-.69-.76-.69-.76-.69-.76-1-1.65c-.81-.71-1.63-1.41-2.42-2.15a40.76,40.76,0,0,1-3.52-4c-.64-.8-1.3-1.67-2-2.47-.09,0-.16.08-.16.06a5.24,5.24,0,0,1-.32-.57,9.14,9.14,0,0,0-1.34-1.16l-.32-.19h-1.26a1.88,1.88,0,0,0-.24.18l-.27.29-.18.25a28.06,28.06,0,0,0-1.56,3.27,12.68,12.68,0,0,1-2.16,3.23c-1.95,2.1-4.48,2.72-7.1,3.16a35.08,35.08,0,0,1-5.12,1.89c-3.46.93-6.93,2.58-10.59,1.69-.61.12-1.21.26-1.81.4a5.47,5.47,0,0,0-.93,2.46c.1,5.66.31,11.32.71,17,.69,9.76,1.54,19.5,2.39,30.09l10-1.87c.91,14.8,1.81,29.24,2.7,43.67l0,.17a3.6,3.6,0,0,1,.06.73,4.88,4.88,0,0,0,.12.55l0,.08h0a.56.56,0,0,1,0,.12h0a.77.77,0,0,1,0,.15h0c.25.85.58,1.67.85,2.51l3.09,6.75a.49.49,0,0,1,.24.4.39.39,0,0,1,.19.19,2,2,0,0,0,.58.82,3.81,3.81,0,0,0,.81.54,12.41,12.41,0,0,1,1.93,1,.56.56,0,0,1,.17.49c1.7,1.66,1.81,3.72,1.72,5.83a11.49,11.49,0,0,1-.12,3.1c0,.19,0,.37,0,.56C393,348,391.36,354,389.32,359.8c-1.59,4.56-4.41,8.71-5.47,13.37-1.24,5.37-1.15,11.11-1.64,16.69a67.5,67.5,0,0,1,1.32,7c1.66,19.77,10.85,37.12,15.07,56.06a43.49,43.49,0,0,0,1.7,6.14,18.06,18.06,0,0,0,2.77,5.19c2.7,3.16,1.34,11.65-2.42,13.1-10.08,3.86-20.23,7.53-30.32,11.36-2.79,1.07-5.46,2.52-8.25,3.62l-.07,0,0,0a15.41,15.41,0,0,1-2.62.93.38.38,0,0,1-.18.13l-.3.07a6.26,6.26,0,0,1-1.35.49l-.12.06-.36.06c-1.68,1.07-3.73.6-5.49.16-3.74-.93-7.3-2.68-11-4-4.74-1.73-8.94-1-12.55,3.1a8.6,8.6,0,0,1-2.84,1.7,4,4,0,0,1-1.34,2.22,3.8,3.8,0,0,1-3.78.08l-1.76.28-.69-.75-.56-1.23c-1-.71-2-1.5-3-2.31-.55.16-1.1.32-1.19.64-1.44,5.1-2.8,10.23-4,15.4,0,.12,0,.23-.05.35a1.11,1.11,0,0,1,0,.19,2.48,2.48,0,0,1,0,.27,17.05,17.05,0,0,0,.41,2.35l.34.31a14.38,14.38,0,0,1,2.46,2.41,9.45,9.45,0,0,1,.88,1.51l.54.59v2.3l0,0c-.66,2.18-1.37,4.35-2,6.56-.3,1.11-.48,2.25-.69,3.39.51,1.42,1.78,2.46,2.65,3.69s2.23,2.12,3.07,3.39l.41.45v0l.71.78,0,0,3.1,3.42c-.12.49-.23,1-.34,1.49a5.67,5.67,0,0,0-4.5-1.45,2.83,2.83,0,0,1-.24.25c-1.23,1.13-2.87,1.58-4.05,2.77a6,6,0,0,0-1.42,2.86,12.2,12.2,0,0,0-.26,1.2q57.24,0,114.48,0a4.33,4.33,0,0,0,2.86-.92,67.2,67.2,0,0,0,6.09-6.62c2.85-3.6,7.29-5.32,10.72-3.3,2.33,1.36,4.08,1.64,6.19-.29.49-.45,2.06-.07,2.77.48a11.27,11.27,0,0,1,2.46,3.16c2.52,4.22,6.28,4.77,10.46,4.63,6.33-.2,12.66-.07,19-.27,3.95-.13,7.89-.59,11.84-.9l.54-1.15a11.73,11.73,0,0,1-2.31-1.6,16,16,0,0,1-1.62-2.65,37.33,37.33,0,0,0-5.42,2.13c-4.75,2.79-8.29,1-11.14-2.14s-4.14-8.6-1.61-12.86c2.43-4.09,5.07-8,7.68-12,1.38-2.09,2.89-4.09,4.32-6.11-7.16-6.79-13.7-13.52-20.77-19.5A14.75,14.75,0,0,1,460.71,476a7.68,7.68,0,0,0-1.51-4.7,45.73,45.73,0,0,0-6.57-5.88c-2.12-1.64-3.19-4-1.81-6.14,1.53-2.42,3.33-.57,4.9.89q7.18,6.73,14.54,13.27c2.67,2.38,4.69,1.92,5.15-1.79.79-6.47,4-9.3,9.62-9.52a2.56,2.56,0,0,0,1-.2c2.55-1.31,3.65-.19,4.42,2.58,2.27,8.19,4.69,16.34,7.2,24.45,2.23,7.22,6.45,9.1,12.83,5.78,2.35-1.22,3.67-1.21,3.87,2.15a4.35,4.35,0,0,0,1.61,2.67c3.32,2.65,6.74,5.14,10.62,8.07-.29-4.14,1.9-3.61,3.73-2.44a72.14,72.14,0,0,1,7.47,5.79c2.18,1.81,4.24,3.78,6.35,5.68l.85-1.11c-2.8-2.68-5.49-5.49-8.42-8-4.23-3.59-4.34-4.89-.17-9l12.36,10.14c.39-1,.3-1.39.08-1.6-5-4.79-10-9.53-14.84-14.43a3.27,3.27,0,0,1-.27-2.82,22.39,22.39,0,0,1,2.79-3.82c2,1.77,3.88,3.35,5.63,5.11,1.31,1.32,2.53,3.17,4.29,1.13s.65-3.59-1-5c-3.61-3.12-7.12-6.38-10.77-9.44-1.42-1.19-2.14-2.2-.9-4s2.32-2.29,4-.86,3.75,2.87,5.64,4.29l.16-.22c-1.4-1.57-2.74-3.23-4.22-4.71-3.49-3.49-3.53-4-.34-7.64l3.66,1.34.6-1c-.48-.28-1.17-.42-1.41-.86-2.33-4.19-1.53-6.28,2.79-7.5,2-.57,4.13-.88,5.94-1.86,1.42-.76,3.27-2.23,3.5-3.66C554.91,446.36,557.26,441.57,554.83,436.5Z"/><path class="cls-1" d="M471.23,208.67c0-2.47,0-4.32,0-6.17-.05-5.54-.06-5.62-5.05-5.44-4.45.15-8.88.49-13.26.75-.74-5-.74-5,7.14-7.46-1-6.38-5.86-.37-8-3.25-.18-.69-.46-1.73-.72-2.7-2.83.19-5.47.52-8.09.47-.78,0-1.75-1-2.22-1.8a2.52,2.52,0,0,1,.5-2.22c4.82-2.23,8.73-6.82,14.52-6.61a15,15,0,0,0,4-.92c0-.43-.07-.87-.1-1.31a30.27,30.27,0,0,0-4.21-.6,32.76,32.76,0,0,0-4.3.53c-.37-2.37-.74-4.2-.92-6.06-.78-7.8-.57-8,6.68-8.26.74,0,1.49-.1,2.24-.15v-.91c-1,0-2,0-3,0a23.9,23.9,0,0,1-4.13.16c-.67-.09-1.23-1-1.85-1.61.62-.68,1.15-1.77,1.88-2,1.32-.33,2.77,0,4.14-.19a11.75,11.75,0,0,0,2.72-1.14l-.27-1.06c-2.11.24-4.22.61-6.34.64-.69,0-1.38-.85-2.07-1.31a7.91,7.91,0,0,1,1.82-1.63,29.2,29.2,0,0,1,3.79-1.16c-1.87-2.2-5.46.52-5.54-3.49-.07-3.61,2.87-2.69,4.76-3.41-.73-.21-1.47,0-2.08-.25a19.05,19.05,0,0,1-2.68-1.48c.9-.76,1.7-1.85,2.71-2.2a12.61,12.61,0,0,1,3.8-.17c2.31,0,4.8.47,4.5-3.67s-.6-4.69-4.86-4.65a17.38,17.38,0,0,1-3.46,0,6.93,6.93,0,0,1-2.07-1.33c.57-.79,1-1.88,1.75-2.29a27.81,27.81,0,0,1,4.35-1.65h-5c-1.75-5.85,3.73-4.23,5.53-7l-5,.74,4-6.39-.4-.6-7.16,3.88c-2.35-5.69-4.45-11.12-6.84-16.39a44.3,44.3,0,0,0-2.84-5,19.66,19.66,0,0,1-7.57.31c-2.69-.26-5.19-.07-7.28,2a50.74,50.74,0,0,0-3.22,4.2,36.66,36.66,0,0,1-3.42,3.62c-2.47,2.31-5.15,4.34-7.72,6.52a33.17,33.17,0,0,0-2.63,2.53,2.41,2.41,0,0,0,.08.25l-.49.38-.06-.13a39.48,39.48,0,0,0-4,5.16,68.52,68.52,0,0,1-5.91,8.57c-2,2.23-4.31,4.06-6.39,6.18-2.25,2.3-3.65,5-5.27,7.77a9.89,9.89,0,0,1-3.57,4.09,9.3,9.3,0,0,1-4.07.93l.71.33c-2.51,1.25-4.81.77-5.91-2-.76-1.93-1.26-4.61,1.92-5.15-.08-4.15-2.91-3.11-4.69-2.59-3.35,1-5.34.3-5.54-3.21l-11.84,2c.05-4.64-1.77-5.37-5-4.34-2.74.87-5.7.91-8.46,1.72-1.29.38-2.37,1.69-3.48,2.65-.34.28-.43,1.14-.72,1.2-7.65,1.58-3.43,7.5-3,11.26,1.57,13.95,3.75,27.81,5.71,41.71.23,1.34.81,2.75.6,4a3.58,3.58,0,0,1-.94,1.64,12.35,12.35,0,0,1-1.64,2.75l-.08.19-.11.06c-1,1.3-2.22,2.49-3.22,3.73-.69.86-1.3,1.78-2,2.68-.5.68-1.09,1.27-1.63,1.92a15.67,15.67,0,0,1-2.47,2.86c-2.06,3.89-.14,7.25,2.46,10.51,1,.77,2,1.54,3,2.3l.3,0c10,.52,19.91.83,29.84,1.66,2.73.23,5.38,1.76,8.05,2.8,1.82-.38,3.66-.65,5.5-.92,1.3-.4,2.64-.66,3.92-1.17a.26.26,0,0,1,.26,0c2.09-.68,4.32-.72,6.38-1.55a.26.26,0,0,1,.15,0h0c.21,0,.43-.11.64-.18a.75.75,0,0,1,.54-.63c3.32-.55,6.21-1.57,8-4.88.95-1.73,1.68-5.26,3.81-5.7,1.08-.22,2.05.55,2.82,1.28a39.88,39.88,0,0,1,3.49,3.95,32.1,32.1,0,0,0,4.08,4.39,49,49,0,0,1,4,3.76,50.92,50.92,0,0,1,3.4,4.46c1.23,1.67,2.52,3.27,3.84,4.85,2.58,3.09,5.26,6.09,7.71,9.31,2,2.56,3.82,4.89,6.78,6a16.63,16.63,0,0,0,5.27,1.05l4-.23a14.48,14.48,0,0,0,7-3l4.26-8.67.4-.31-.26.46c-.26,1.23-.53,2.46-.8,3.7l.09.09a3.66,3.66,0,0,1,1.44-.81c.91-3.34,3.58-3.24,6.16-3.5l-5.83-1.43c-.09-.29-.17-.58-.25-.87l6.74-3.23-3.39-2c-.4-3.28-.75-6.18-1.15-9.38l3.82.72.11-.14c-1.52-2.79-7.79-2.09-4.72-7.88-4.4-2-3.29-6.36-4.47-9.5C461,199.79,465.41,205.8,471.23,208.67Z"/><path class="cls-1" d="M346.09,65c-8.17,1.46-16.31,3.12-25.13,4.82,3.1,21.72,6.18,43.28,9.26,64.84l1.19.65c1-1.16,1.93-2.36,2.95-3.47.58-.63,1.21-1.47,1.92-1.62,4.85-1.06,9.71-2,14.6-2.85a2.45,2.45,0,0,1,2.13,1.15c.71,3,2.69,2.66,4.67,2.4a16.2,16.2,0,0,0,4.07-.77c3.29-1.37,4.82-.12,4.78,3.13,2.92,0,5.65-.36,8.23.2.84.19,1.26,2.75,1.94,4.39a9.82,9.82,0,0,0-2,1.58c-1.07,1.42-1.44,2.81.57,3.64,0-.43.23-.8.61-.8,2.16,0,4.8.13,6.62-1.39s2.84-4.27,4.08-6.41c3.23-5.56,8.84-8.68,12.4-14,2-2.92,3.72-6,5.86-8.81a43.52,43.52,0,0,1,7.39-7,65.31,65.31,0,0,0,7.7-7c2-2.26,3.38-5.23,6-6.69,1.94-1.07,4.09-1,6.2-.79a20.2,20.2,0,0,0,6.26-.06c-.17-.28-.34-.55-.5-.83l-.72.74.67-.78,3-5.36-.62-.85a33.6,33.6,0,0,1-5,1.88c-1.05.22-2.8.12-3.26-.59-1.94-3-3.52-6.28-5.23-9.46l-3.77,0c.7-1.81,1.4-3.62,2-5.33-1.37.37-3.76,1.52-4.12,1-1.2-1.71-1.65-4-2.39-6.12l-.17-.23c-3.73-.65-4.11-1.79-2-5.9l-.19-.21-4.82-1.54L418.9,50c-1.16-3.75-2.81-5.06-5.83-2.32A44.27,44.27,0,0,1,408.3,51c-.39-2.72-.72-5-1.11-7.74l4.41-5.31-1-1a56.83,56.83,0,0,1-4.31,4.33,3.39,3.39,0,0,1-2.77.72c-.54-.17-1-1.62-1.05-2.5,0-2.39.22-4.78.26-7.17.06-3.15,0-6.31,0-9.47l-1.37-.42-5.8,7.21a43.19,43.19,0,0,1-5.38-3.68,4.39,4.39,0,0,1-1-3.34,68.13,68.13,0,0,1,1.88-7.1l-.92-.3a43.36,43.36,0,0,1-1.82,5.51c-.49,1-1.61,1.69-2.44,2.52a12.21,12.21,0,0,1-1.61-3.26c-.52-3.05-.74-6.16-1.08-9.25l-1,.08v9.73c-2.64-1.41-4.55-2.9-6.68-3.47-4.73-1.26-5.88-5.14-6.51-9.52-.2-1.36.1-2.8-.09-4.16A7.08,7.08,0,0,0,367.81.09c-.23-.31-2.17.23-2.33.75a5.81,5.81,0,0,0,.21,3.44c1.26,3.34,2.72,6.59,4.41,10.58-7.83-.16-7.28-8.82-12.3-11.44l4.31,10c-3-.5-6-2.06-8.2-1.17-4.56,1.85-6.54-.85-8.82-4-3.15-4.29-6.63-5.62-10.67-3.91,4.53,3,6.62,9,12.27,10.1a9.31,9.31,0,0,1-.17,2.73A10.24,10.24,0,0,1,342,17.1c-2.1-.73-5.12.25-4.85,2.15.75,5.16.09,11.11,5.68,14,.76.39,1.25,1.39,1.86,2.11.24.25.47.51.71.77.69,3.52,1.51,7,2,10.57.29,2-.34,3.81-2.73,3.85-2.59,0-2.39,1.61-1.68,3.5,7.31-.7,4.85-1.39,6.51,5.93C350.28,63.18,348.89,64.51,346.09,65Zm75.07,30.31.7-.75.69-.76.7-.76.7-.75L425.07,90l.87.83-2,1.5-.69.76-.69.76-.69.76c-.24.25-.47.51-.7.76l-.37.31Zm-4.67,4.85c.13,0,.2.35.3.55l-.45.43-.42-.75C416.11,100.31,416.33,100.12,416.49,100.17Z"/><path class="cls-1" d="M73.53,131c.83-2.49,2-3.87,4.68-2.34a3.64,3.64,0,0,0,3.3-.59c3.88-3.05,7.66-6.13,12.89-5.46.67.09,1.65-.77,2.17-1.47,8-10.66,12.21-23.15,14.73-36.52.7-3.72,2.51-7.18,3.81-10.77,1.72-4.79,3.8-9.48,5.07-14.41,2-8,3.62-16.05,5.25-24.13.41-2.06.08-4.3.46-6.38.43-2.34,1.29-4.58,1.94-6.87a11.81,11.81,0,0,0,.64-2.83c.09-3.07,0-6.14,0-9.1,2.54-1,4.43-.51,4.74,2,.44,3.4,2.53,4.34,4.95,4.91,4,1,8.07,1.52,12,2.61,1.81.5,4,1.4,5,2.92,5,7.47,12.44,10.94,19.37,15.4,2.56,1.64,5,2.67,7.77,1.87,6.08-1.79,12.08-3.92,18.13-5.87,2.76-.9,5.52-1.85,8.34-2.47,1.19-.26,2.51.26,4.49.52.81-.23,2.36-.62,3.89-1.12,3.21-1,6.36-2.76,9.63-3.06a23.84,23.84,0,0,0,11-3.92c2.37-1.51,5.79-1.05,9-.67-3.24,1.24-6.43,2.71-9.75,3.64-1.93.55-2.61,1.54-2.15,3.4s.34,4.77,3.26,4.37c4.68-.65,9.33-1.5,14-2.46.46-.09,1.12-1.57,1-2.22-.55-2.43.53-3.24,2.42-3.55,6.26-1,12.52-2.12,18.8-3,1.6-.22,3.65-1.18,4.68,1.73.24.69,2.33.61,4.23,1a17.15,17.15,0,0,0,1,3.13A35.45,35.45,0,0,0,286.73,33c1.48-1.37,3.54-2.45,4.28-4.19s.17-4.14.17-6.86l1.34,2.58h1.07c.21-2.19.41-4.37.67-7.08l1.39,6.18c4-.24,1.92-3.7,2.8-6,.5,4.16,2.79,3.6,4.82,2.3,1.68-1.08,3-1.59,4.8-.41.83.53,2.18.09,3.5.09,1.6,3.91,3.06,8.74,8.2,7.6,2.93-.65,5.63-2.73,8.3-4.42,3-1.9,3.34-5,1.89-8.72h1.36l1.49,3.73c3.37-.34,3.63,2.18,3.59,5.12-.1,6.4,3.63,12.32,8.35,12.48l0,0v.78c.49,3.91,1,7.82,1.44,11.33-2.18,1.66-5.55-.16-5.44,4.12.14,5.26,3.06,4.51,6.53,3.2.53,3,1,5.64,1.48,8.43-9,1.65-17.57,3.36-26.22,4.71-2.6.41-3.09,1.73-2.75,4,2,13.52,4,27,6,40.55,1,6.52,1.84,13,2.75,19.55l-5.62,1.25v4.28l-3.72.52q-1.59-9.72-3.11-19l-5.63.49-1-3.91c-3.84.63-7.58,1.17-11.28,2-.49.11-1,1.49-1.06,2.33a13.54,13.54,0,0,0,.4,3.15c-2.31.39-4.34.7-6.36,1.08-6.69,1.25-13.38,2.56-20.08,3.79-2.87.52-2.12,2.87-2,4.73.17,2.13,1.48,2,3.08,1.6a29.89,29.89,0,0,1,6.83-.94c.87,0,1.75,1.11,2.63,1.72a16.33,16.33,0,0,1-5.62,2q-15.89,3.18-31.76,6.36c-2,.39-3,1.72-2.25,3.68a3.63,3.63,0,0,0,2.81,2c4.68-.41,9.33-1.2,14.31-1.89q1.56,11.5,3.09,22.73l-22.48,5c-.57-6.76-1.1-13-1.68-19.77-2.74.36-6,.71-9.26,1.23-8.42,1.35-16.81,3.07-25.27,4.08-5.77.69-5.93.09-6.12-6.26-.14-5.12-.42-10.23-.67-16.05l-19.22,2.84c-.2-2.67-.35-4.63-.52-6.95-1.71,0-3.19-.09-4.66,0-9.89.7-19.78,1.5-29.67,2.15-9.21.61-18.43,1-27.64,1.64-4.48.29-9,.71-13.4,1.41-.85.13-2,1.75-2.15,2.83a50.92,50.92,0,0,0-.1,7.19l-24.66,1.72C74.26,143.78,73.9,137.38,73.53,131Z"/><path class="cls-1" d="M325.52,207.1a4.42,4.42,0,0,0,1.51-1.35c.46-.56.89-1.14,1.35-1.69s1.13-1.24,1.63-1.94,1.09-1.59,1.69-2.33c1-1.28,2.15-2.46,3.19-3.73a13.92,13.92,0,0,0,1.61-2.3q.3-2.89.62-5.81c-.33-1.94-.68-3.87-1-5.81q-3.36-22.12-6.67-44.25c-.59-4-1-4.36-4.7-3.16a2,2,0,0,0-.18.73c.33,3.14-1.37,3.75-3.77,4s-3.14-.86-3.42-3.33c-.59-5.18-1.49-10.32-2.27-15.52-5.34,2.16-5.34,2.16-7.19-3.27l-9.87,1.93C300,123.5,298,124.45,295,125c-8.28,1.46-16.53,3.1-25,4.7.27,1.3.49,2.35.73,3.54l10.88-2.56.69,1c-1.27,1.87,2.6,5.1-1.6,6q-17.54,3.75-35.16,7c-2.31.42-2.69,1.28-1.91,3.5,4.76-.75,9.42-1.59,14.11-2.12a3.13,3.13,0,0,1,2.61,1.71c1.16,6.79,2.15,13.63,2.92,20.48a4,4,0,0,1-1.83,3.21,111.17,111.17,0,0,1-14,3.57c-6.93,1.21-7,1-6.34,8.34a17.55,17.55,0,0,0,.45,3.35c.86,3-.09,4.56-2.93,4.83a9.14,9.14,0,0,0-2.4.32c-4.35,1.63-10.57-.3-11.84,7.31,0,.1-.42.12-.64.18l-2.42.81-1.69,4.64L214.74,207c.11,1.18.16,2.54.39,3.86.62,3.58-.21,4.86-3.59,5.17-1.26.12-2.56-.1-3.81.1-4.8.74-10.1-2.92-14.45,2-.37.41-1.34.14-2,.26-4.2.75-7.82,2.39-10.62,6.27-1.55,2.15-4,3.5-6.09,5.21-2,2.58-3.8.24-5.5-.52-5.45-2.43-10.79-5.37-16.76-1.79-.23.24-.45.49-.68.74,0,.88-.07,1.76-.07,2.64,0,5.93-1.39,8.19-6.51,10.08-2.28.83-4.72,1.1-7,1.88a22.72,22.72,0,0,0-3.82,2.16c1.38.45,2.78,1.36,4.13,1.26,2.79-.19,3.55.9,3.54,3.87,0,4.72.45,9.45.72,14.28,1.46,0,2.49.07,3.51,0,7.91-.66,15.82-1.27,23.72-2.08,2.82-.3,3.71,1.23,3.88,3.84.11,1.7.17,3.4.28,5.53l14.15-1.17a15.7,15.7,0,0,0,.15-2.3c-.69-6.66-.7-6.66,5-9.06L205.72,254c1.47-2.31,2.57-1.81,3.27.58a7.46,7.46,0,0,1-3,8.36,1.93,1.93,0,0,1,.21,1.12s0,.06,0,.09c0,.23,0,.45,0,.68v.11c0,.1,0,.21.05.31q.1.58.24,1.17c.19.78.42,1.55.67,2.31a39.33,39.33,0,0,1,1.35,4.74,1.94,1.94,0,0,1,0,.8c1.39,4,4.59,5.44,8.72,4a41.16,41.16,0,0,1,4.32-1.29c.64-.15,1.81-.15,1.94.17,2.06,5,5.6,1.37,8.39,1.69,2.12.24,4.33-.36,6.5-.59.24-.25.48-.49.71-.74s.45-.52.67-.79a9,9,0,0,1,.07-1.88c1.12-4.9,2-9.57-.45-14.6-.85-1.72.14-5.63,1.54-7.29,2.58-3.09,1.7-6.22,1.56-9.48a7,7,0,0,0-.17-.73c-1.49-7.8-1.42-7.93,5.64-9.34,1.84-.37,3.12-1.06,3.19-3.57,0-1.09,1.19-2.14,1.83-3.21l.73-.71c-.23-1.42-.51-2.84-.66-4.28-.11-1.07-.22-3.08,0-3.13,3.62-.84,7.29-1.48,11-2.06.24,0,.58.69.88,1.07l.68.76c.24.24.47.49.71.74q10.56-1.59,21.13-3.18c2.14-.33,4.27-.71,6.54-1.09l1.35,3.55,15.43-2.48c-.16-1.72-.2-3.18-.45-4.6-.75-4.27-.55-4.61,3.39-5.1.68-.08,1.35-.27,2-.4,2.38,5.26,5.41,5.83,9.42,1.9a2.65,2.65,0,0,1,.26-.21A.41.41,0,0,1,325.52,207.1Z"/><path class="cls-1" d="M270.92,421.62c-3-.56-6.21-.38-9.22-.6-6.24.51-2.23-12.26-3.19-16.5a17.41,17.41,0,0,1-2-2.09l-.86-3.89c-.14-4.51.94-9.05.74-13.56l0-.06a1.74,1.74,0,0,1-.13-.59,1.49,1.49,0,0,1,0-.21,1.64,1.64,0,0,1,0-.88,1.39,1.39,0,0,1-.06-.4c-1.63-1.69-3.36-3.24-5.07-4.82l-.06-.26-.06,0a.59.59,0,0,1-.19.05.65.65,0,0,1-.57-.44h0a.51.51,0,0,1-.37-.16,1,1,0,0,1-.56-.86,43.47,43.47,0,0,1-4.51-4.86,18.91,18.91,0,0,1-.09,2.19c-.54-7-7.65-7.09-11.69-10.36l1.59.37c-4.73-2.29-10.61-7.32-10.22-13.56.69-4.33,5-3.79,7.06-6.56l.21.22c4-5.3,4.6-12.26,6-18.71l0,.09V325s0,0,0-.05l.06-.29s0-.07,0-.11a1.19,1.19,0,0,1,.08-.16c0-.07,0-.25,0-.26h0l0-.26h0a1,1,0,0,0,.08-.19,1.29,1.29,0,0,1,.2-.76,5.19,5.19,0,0,1,.2-1.1.94.94,0,0,1,.19-.32c.61-3.46.07-7.18,0-10.68l1-.14v0a.38.38,0,0,1,.15,0h0c.22-2.19-1.56-4.8-.43-7-.45-1.43-.46-3.24-1.28-4.46a4.86,4.86,0,0,1,.74.89,4.16,4.16,0,0,1,.73-2.45l0-.34h.34c1.54-1.15,4.43-.3,2-3.07l.06-.1c-1.78-3.26-7.88-7.71-7-11.34l-2-2.83c-2.79-.27-9,4-10.26-1-4.67-.25-12.88,3.59-15.92-3.59-2-2.89-2.83-7.66-3.36-11.41-1.09.29-2.21.51-3.3.79-.11-.55-.23-1.11-.35-1.66,1.12-.24,2.23-.58,3.36-.71,3.71-.24,7.14-6.37,2.72-8.36-3,3.7-7.88,4.16-11.83,6.16-5.09,2.06-5,2-4.48,8.07-.35,5.8-6.89,4.14-10.6,4.69C171,274,173,270.3,172,263.58l-36.71,3.91c2.71,46.77,4.59,93.53,6.41,140.34a2.89,2.89,0,0,1-.35.73.47.47,0,0,1-.15.37,3.19,3.19,0,0,1-.42.26c-2.34,2.05-8.16,1.68-12.79,1.6-.49.07-1,.13-1.49.16a.24.24,0,0,1-.21.13h-3.6c-20,.63-41.25,5.6-61,2.34a20.41,20.41,0,0,1-2.33-.33,9.88,9.88,0,0,1-1.06-.31c-.42-.09-.85-.18-1.28-.29l.09.06-1.47-.81.08.05-3.49-2.39.07.07a5,5,0,0,1-.81-.74A7.73,7.73,0,0,0,50,407.9c-1.13-.46-2.36-.13-3.49-.56l-20.35.34c-5,46.32,7.24,91.89,17.24,136.49.86,3.25,1.93,4.4,5.1,4.38,39.67-.83,79.56,1.37,119.13-1a4.64,4.64,0,0,1,1.47-2.28,12.1,12.1,0,0,1,1-.79c3.91-4.55,9-6.58,14.77-8.31,4.59-4.18-7.92-10.49-11.6-9.1-5.27-.91-16.51,2.33-18-5.17-3.68-14.68-5.28-29.55-3-44.7l67.13-2c.11-1.81.23-3.76.39-6.33,5.59-1.37,17.58,4.24,19.77-2.88,4.78-17.85,17.12-31.9,33.1-38.33a1.11,1.11,0,0,1,.91-1.17C280.41,426.17,273.91,422.23,270.92,421.62Z"/><path class="cls-1" d="M330.4,343.46a19.45,19.45,0,0,1-3.3-3.1,5.61,5.61,0,0,1-1-3.57,3.3,3.3,0,0,1,2.14-2.19,34,34,0,0,1,6-.11c-.22-1.74-.45-3-.54-4.31-.52-7.91-1-15.83-1.51-23.73-.85-12.3-1.78-24.58-2.65-36.87-.52-7.28-1-14.56-1.48-21.84-.7-9.78-1.33-19.57-2.16-29.34-.46-5.38-2.08-6.87-6.88-6.94-1.71,0-3.06-.08-3.7-2.44-.22-.84-2.21-1.1-4.13-2,.37,3,.58,4.8.83,6.61.32,2.32-.52,3.54-2.69,3.86-4.44.66-8.86,1.64-13.32,2-1.16.09-2.44-1.66-4.29-3-6.5,1.2-14,2.67-21.48,3.86-1.31.21-2.77-.76-4.16-1.18l-.66-.8-.69-.74L253.4,218.8c1.53,3.18,4.24,5.7.29,7.83a2.48,2.48,0,0,1-.66.08c-.29,2-.6,3.95-.86,5.94-.42,3.1-3,2.42-4.64,2.86-5,1.32-5,1.17-3.95,6.43.84,4.26,1.78,8.27-1.79,12.21-2.07,2.28-2.29,6.12,0,9.37a5.77,5.77,0,0,1,.37,6.92c-1.15,1.85-1.58,4.23-2.34,6.37l-.72.71-.68.78-3.18,2.22,1.06,2.6a55.55,55.55,0,0,0,5,7,23.08,23.08,0,0,1,3.07,4.31l2.21,1.25c-.35.72-.6,1.95-1.08,2.07s-1.23.25-1.85.34a4.33,4.33,0,0,1-1.56.5,2.29,2.29,0,0,0-1,.23c-.33.26-.36.9-.37,1.3a11.67,11.67,0,0,0,.44,2.87,1,1,0,0,1,.08,1.12h0c.87,2,.93,3.45.23,4.64a12,12,0,0,1,.35,1.66,3,3,0,0,1-.53,2.2,4.78,4.78,0,0,0-.53.59,4,4,0,0,0-.23,1.66c0,.11,0,.21,0,.31.79,1.3,1.21,2.61.26,4a9.15,9.15,0,0,1,0,1.17,36.38,36.38,0,0,1-1.33,5.4h0c0,.13-.08.27-.11.4-1,4-1.17,8.05-2.61,11.88a44.64,44.64,0,0,1-2.48,5.34,8,8,0,0,1-2.58,3.06,20.53,20.53,0,0,1-3.19,1.48l-2.3,2.83-.09.23s0,0,0,0c.41,4.16,4.28,8.16,7.5,10,1.75,1,3.62,1.65,5.36,2.66a19.4,19.4,0,0,1,3,2.26,5.18,5.18,0,0,1,1.64,1.51l.22.21c2.95,2.94,5.49,6.38,8.59,9.15,1.4,1.25,2.93,2.29,4.24,3.66a16,16,0,0,1,3,4.5,1.06,1.06,0,0,1-1.17,1.52c-.11.79-.22,1.58-.32,2.38a19,19,0,0,1,.14,2.12,6.85,6.85,0,0,1-.59,2.92c-.12,1.77-.2,3.53-.18,5.27a6.09,6.09,0,0,0,.08,1.08c1.36-.68,2.66-.94,3.81,1.71.85,1.13,1.69,2.27,2.54,3.41l-2.37.88a8,8,0,0,1-.52,4.19A9.14,9.14,0,0,0,260,414a6.49,6.49,0,0,0,1.18,3.44c1.22,1.61,3.34,1.72,5.1,1.77a23.77,23.77,0,0,1,5.07.37c.83,0,1.65-.1,2.47-.21,3.93-.49,5.48,1.6,6.31,5.18a6.85,6.85,0,0,0,.39,1.07,23.83,23.83,0,0,1,3,3.11,33.38,33.38,0,0,0,3.73,4c1.63-.68,3.39-1.2,4.57-2.41a24.26,24.26,0,0,1,12.28-7.16,7.05,7.05,0,0,0,1.64-.64.92.92,0,0,1,.39-1.21,1.66,1.66,0,0,0,.59-.51,23.58,23.58,0,0,1,1-2.66,14.75,14.75,0,0,1,.78-1.66,66.72,66.72,0,0,1,3.65-5.81c1.31-1.92,2.67-3.81,3.91-5.78.62-1,1.18-2.05,1.81-3a17.26,17.26,0,0,0,1.53-2.72.77.77,0,0,1,.52-.52c.15-1.81.29-3.61.52-5.4.38-2.95.81-5.9,1.25-8.85a1.51,1.51,0,0,1-.06-.66c.22-1.15.52-2.28.77-3.42l0-.05v0a1.42,1.42,0,0,1,0-.2l.09-.44c.05-.27.09-.54.13-.82s.07-.53.09-.8v-.14c0-.11,0-.23,0-.34a2.08,2.08,0,0,0,.47-1.2,6.24,6.24,0,0,0-.59-2.15c-.29-.85-1-1.79-.87-2.5,1-4.52,2.22-9,3.41-13.46.18-.69.56-1.84.93-1.88,5.2-.6,4.54-5.88,6.29-9.21a23.15,23.15,0,0,0,.93-2.4l-3.36-.57Z"/><path class="cls-1" d="M400.37,464.9c-1.36-4.53-2.74-9.06-4.08-13.59-4-13.53-8.34-27-12-40.64-1.78-6.73-2.28-13.85-3.35-20.8-.24-6.44-.38-12.87,2-19l.71-1.52,4.15-9.82c-.89-1.86-.74-3.27,1.36-3.86q2.17-6.84,4.33-13.68l-.72-7.07c-.18-.26-.37-.5-.56-.74,0,0,0-.08,0-.12h0a1.72,1.72,0,0,1-.34-.49,3.45,3.45,0,0,1-.14-.34l-1.49-1.61a3.31,3.31,0,0,1-1.17-1.43,0,0,0,0,0,0,0l-.07-.06-.08,0c-.17,0-.28-.15-.33-.34-2.21-1.73-2.68-4.41-3.09-7.13-.26-.85-.58-1.68-.84-2.53h0a.62.62,0,0,1-.1-.22l0-.14v0s0,0,0-.05a.71.71,0,0,1-.14-.61l-.06-.32a3.68,3.68,0,0,1-.57-1.52c-.79-11.14-1.45-22.29-2.21-33.44-.15-2.22-.59-4.42-.93-6.84-2.42.2-4.68.37-6.93.58s-3.18-.61-3.24-3.16c-.12-4.78-.5-9.54-.77-14.3l-.5-1.58q-.44-9.08-.89-18.16l-.49-1.57c-.06-2.65.06-5.32-.22-7.93-.69-6.45-.77-6.44-6.75-6.47h-15.3c-1.57.12-3.67,2.15-4.25-1.39L332,220.57l-.31,0-2.26-.08-1.52.85,2.28,38.68c.16.53.32,1.06.49,1.59,1.17,16.74,2.41,33.47,3.48,50.21.47,7.27.61,14.55.9,21.83l1,.76-1,.75a38.79,38.79,0,0,0-4.3.81,25.29,25.29,0,0,0-3.34,1.47l3.29,1.56c1.19,1.21,2.37,2.43,3.56,3.65a61.66,61.66,0,0,1-.81,6.55,61.47,61.47,0,0,1-2,6.29c.1,2.77.1,2.77-1.33,2.4-2.94-.54-4.43.83-4.85,4-.33,2.47-1,4.9-1.47,7.34l.78,3.77c-.15,1.42-.31,2.84-.46,4.26h0a12.92,12.92,0,0,1-.4,3.45c-.14.64-.29,1.29-.44,1.93l0,0,.34.26-.48.35c0,.06,0,.12,0,.18v0a1.29,1.29,0,0,1,0,.19c0,.13,0,.25-.07.37a1,1,0,0,1-.49.79l-1.11,11.71a.56.56,0,0,1,.43.07c.42.28.41,1,.31,1.42a13.08,13.08,0,0,1-2.8,5.12c-.65,1-1.24,2.13-1.9,3.16-1.29,2-2.7,3.95-4,5.94l-.87,1.29,0,.08-.15.09a33.36,33.36,0,0,0-2.86,4.94c-.09.21-.17.42-.25.63v.06l1.37,1.6c5.19.41,10.38,1.28,15.55,1.1,4.13-.15,6.37,1.49,6,6-.06.87,0,1.75,0,2.63l0,1.59c2.42,2.05,1.64,3.25-.93,3.74s-4.93.72-7,1c-.37,2.53-.74,5-1.1,7.39v0c-.24,1.24-.49,2.47-.74,3.7,0,1.09,0,2.17,0,3.26l2.79,9-2.05,2.28,0,0-2.12,3L319,468c.91,4.34.5,8.28-2.79,11.38.25.75.51,1.5.77,2.25,6.74-.41,7.41,5.28,8.42,11a58.76,58.76,0,0,1,4.87-3.46c5.19-2.92,10.42-1,15,1.3a19.42,19.42,0,0,0,11.3,2.29,16,16,0,0,0,2.51-.73,15.18,15.18,0,0,1,1.43-.56c8.92-3.41,17.85-6.77,26.75-10.23,4.62-1.8,9.17-3.77,13.75-5.66l.62-.69.75-8.37Z"/><path class="cls-1" d="M133.43,408.89l1.18,0c2.14-.29,4.28-.6,6.41-1-2.07-47.07-4.81-94.33-6.92-141.35l7.14-2c-.28-5.86-.55-11.38-.82-17C98,250.18,56.13,253.82,13.93,257.85c3,49.9,7.5,99.51,11.71,149.32,7.24-1.1,14.49-2.86,21.57-.7a14.52,14.52,0,0,0,1.48.12,4.48,4.48,0,0,1,1.89.51c1.19.62,2.27,1.51,3.4,2.25a28.15,28.15,0,0,0,3.42,2,11.45,11.45,0,0,0,3.57.91c12.46-.64,25-.67,37.52-1,1.15-.17,2.29-.33,3.44-.47,2.66-.31,5.33-.47,8-.58,4.68-.2,9.37-.23,14-.23q3-.27,6-.61A21.41,21.41,0,0,1,133.43,408.89Z"/></g></g></svg>