<svg xmlns="http://www.w3.org/2000/svg" viewBox="0 0 580.15 524.38"><defs><style>.cls-1{fill:#c7c7c7;}</style></defs><g id="Layer_2" data-name="Layer 2"><g id="Layer_1-2" data-name="Layer 1"><path class="cls-1" d="M0,158.43C1.31,157,2.94,155.69,3.85,154c1.27-2.34,1.71-5.14,3.06-7.41.93-1.56,2.77-2.59,4.25-3.8,6-4.92,12-9.76,17.88-14.79.65-.56.39-2.19.5-3.33.09-.87-.11-2.4.21-2.51a4.5,4.5,0,0,1,2.92.09c5.2,2.1,10.48,3.69,16.1,2.33a9.64,9.64,0,0,0,4.48-2.6c1.44-1.51,2.44-1.59,3.24.22,1.82,4.16,5.69,4.87,9.4,5.68,3.11.67,6,.27,6.13-4.25l2.71,1.44c.49,5.49,1.14,11,1.4,16.48.15,3.19.86,5.07,4.58,4.6,6.37-.82,12.76-1.42,19.13-2.16,5.3-.63,5.48-.67,5.22-5.94-.15-3.27,1.2-4.17,4.19-4.29,9.61-.41,19.23-.95,28.84-1.55,14-.88,28.07-1.87,42.11-2.77a22.6,22.6,0,0,1,3.13.25c.17,2.48.32,4.6.52,7.52l19.87-3.77c.56,7.88,1.06,14.79,1.62,22.75l41.21-6.59c1.52,10,2.93,19.39,4.35,28.74.34,2.23-.87,3-2.84,3.25-3.21.43-6.4,1.12-9.62,1.41-3.77.35-5.74,1.9-4.86,5.92-5.14,1.16-5.14,1.16-4.44,6a2.11,2.11,0,0,1,0,.35c-1.88.28-4.33,0-5.47,1-1,.9,0,3.58-.61,5.18-.52,1.31-2.11,3.08-3.26,3.11-3.37.07-6.75-.7-10.14-1-1.76-.15-4.85-.47-5.09.15-1.22,3.14-4,2.16-6.05,3-1.89.72-4.18.93-5.64,2.16-3.82,3.2-7.28,6.84-10.89,10.3-1.13-.29-2.29-.49-3.38-.89-3.24-1.2-6.39-2.66-9.69-3.67-4.72-1.46-8.24-.52-10.2,2.35l-.72.72c-.43,1.11-1.27,2.23-1.22,3.32.17,3.61-1.89,5.68-4.77,6.9a32.9,32.9,0,0,1-8.93,2.68c-3.35.38-5.05,1.64-4.78,5.32-6.88.29-13.47.45-20.06.87-13.66.87-27.31,1.87-41,2.82-7.55.52-15.11.93-22.64,1.59-9.5.83-19,1.86-28.46,2.81l-1.51,0-10.81.51c-.26-2.5-.72-5-.73-7.51-.06-15.61-.73-31.17-3.73-46.53-.7-3.57-.78-8-3-10.38-3.65-4-5.5-7.89-5-13.18.1-1.11-.91-2.31-1.4-3.47v-5.08Z"/><path class="cls-1" d="M345.47,407.08c-2.26-3.35-5.58-2.35-8.92-2.45-4.95-.15-9.87-1.11-14.79-1.82a3.17,3.17,0,0,1-1.28,1.13,1,1,0,0,1-.74.06,1.34,1.34,0,0,1-.77.67c-6.63,1.24-11.3,5.87-16.64,9.33-1.25.81-2.7,2.22-3.5-.5l0,0-.75-.75,0,0-.75-.76,0,0-.76-.75,0,0-.73-.73-1.46-2.19-.74-.73,0,0-.73-.73-2.34,0h0c-.83,1.79-3.58,2-5.23,2.22a1,1,0,0,1-.47-.07c-2.38,1.5-4.74,3-7.22,4.34-7.07,3.77-13.72,8.3-18,15.06-3.8,6-6.42,12.83-9.26,19.42-.83,1.93-1.72,2.52-3.69,2.42-5.63-.28-11.28-.4-16.92-.58v5.55l-70.4,1.57c-.23,5.41-.92,10.85-.56,16.22.37,5.58,1.72,11.1,2.72,16.64.38,2.12,1.19,4.18,1.46,6.31.56,4.39,1.08,4.87,5.66,5.16,6.48.4,13,.84,19.41,1.45,2.54.23,7.57,5.2,7.64,7,.08,2.11-.71,3.24-3,3-6.42,1.47-11.29,5.76-16.68,9.12l-1.05.95a18.47,18.47,0,0,0,3.87.83q69.09.07,138.18.07a23.5,23.5,0,0,1,4.09.7h2.17l-.27-.82a1.07,1.07,0,0,1-.45-.28c.24-1.09.49-2.18.73-3.27l0,0,0-.72c1.9-1.42,3.78-2.84,5.68-4.24.74-.54,1.51-1.06,2.26-1.58l-.72-.73,0,0-.75-.74,0,0-.74-.75v0l-.73-.73-1.45-.73q-1.45-1.8-2.9-3.62c-.6-.46-1.76-1.18-1.7-1.32,1.46-3,3-5.9,4.61-8.84l0,0v-2.19l-.73-.73,0,0-.75-.75,0,0-.75-.76,0,0-.73-.72-.93-.77-.51-.5c-.62-1.21-2-2.61-1.74-3.59,1.56-6.09,3.48-12.09,5.28-18.11l1-.15c.42.94.85,1.88,1.28,2.82l.72.73v0l.74.74,0,0,.73.73c.25.49.49,1,.74,1.46l.71.71,5.09-.72,1.45-1.45h0a32.45,32.45,0,0,1-1.35-5.39c-.32-3.61-1.64-6.07-5.59-6.52-.62-.07-1.18-.74-1.77-1.13l0-2.19,0,0c.73-2.13,1.46-4.26,2.24-6.56-2.6-3.7-.31-8.26,5-9.4l1.45-2.16c-1-2-2-4-3-6-2.45-4.78-2.4-5.17,1.53-9.18-.26-2.7-.51-5.39-.78-8.31l8.44-1.11C345.13,412.12,345.31,409.52,345.47,407.08Z"/><path class="cls-1" d="M579,416.74c-2.07.3-3.71.15-2.51-2.72.1-.22-.82-.86-1.27-1.3l-.09.1a12.93,12.93,0,0,1-2.93.84c-1.21,0-2.5-.65-3.64-.42-5,1-6.5-.2-6.36-5.43l-.14-.16c-2.47,1.39-2.91,0-2.78-2.06l-.2-.16c-1.59,0-3.7.93-3.52-2-2.08.89-3.54,1.11-3.15-2.1.11-.89-1-2.11-1.82-2.8-.25-.2-1.84.74-2.35,1.48a13.8,13.8,0,0,1-9.92,6c-.31-1.69-.5-3.37-.94-5-1-3.77-1.66-7.78-3.48-11.13a7.88,7.88,0,0,0-6.2-3.46c-1.84.16-3.65,2.85-5.09,4.72a51.66,51.66,0,0,0-3.63,6.17l-5.52-3.61c.41-1.9,1-3.86,1.23-5.86s.21-3.73-2.24-5c-1.45-.75-2.69-3.08-2.89-4.82-.28-2.33.54-4.79.88-7.17,2.85,1.43,5.33,5.59,9.8,2.13-5.06-1.12-5.43-5-5.89-9.62L538.79,361a6.71,6.71,0,0,0-.41-1.44c-6.8-10.37-13.53-20.78-20.5-31-1.2-1.76-3.43-4-5.18-4-13.26,0-26.52.59-39.79.92-6.31.16-12.71,1.8-18.81-1.4-4.54-2.39-4.69-3.1-.7-6.75,1.22.69,2.77,1.14,3.66,2.16,3,3.45,6.93,2.87,10.72,2.64,1.84-.11,3.61-1.12,5.45-1.3,11.38-1.06,22.78-2,34.15-3.08,1.14-.11,3.13-1.37,3.11-2.06-.14-5.94-.66-11.87-1.06-17.8l-14.06,1.18-.09-.66,3.73-2.65c-2.45.18-3.89.55-5.2.28-.78-.17-1.36-1.35-2-2.07h0c-4,.84-6-1-6.07-3.84-1.59-1.18-3.24-2.08-3.14-2.38.4-1.14,1.16-2.66,2.14-3a20.71,20.71,0,0,1,6.38-.88c2.17,0,3-.72,2.91-2.94-.21-5.11-3.57-10.07-.8-15.33a.49.49,0,0,0-.05-.35c-1.56-3.32.25-3.9,3.07-4.06,1.18-.07,3.27-.93,3.3-1.49.19-4.71,0-9.44-.07-14.16l-1.22.06c.26,3.82.61,7.63.74,11.45.06,1.76-.22,3.65-2.84,2.12l-1.48.68c-.47-.8-1.27-1.57-1.36-2.41-.43-4.19-.68-8.4-1-12.61H492c-.14,1.27-.28,2.55-.4,3.68H479.9c-.81-4.21-6.91-3.32-7.54-8,2.52-1.77,2.16-4.24,2-6.71a10.25,10.25,0,0,1-2.1,2.6,15.28,15.28,0,0,1-3,1.74l0,.27-.79.05a20.29,20.29,0,0,1-7.36,1.34,24.45,24.45,0,0,1-5.33-.51,20.58,20.58,0,0,1-5.22-1l2.08-.11c-2.84-1.39-4.66-3.67-6.66-6-1.74-2.07-3.58-4-5.42-6l-.33-.33-.72-.72-.72-.72-.36-.53-.51-.56q-1.6-1.76-3.12-3.6l-.38-.38-.72-.72-.74-.72-.72-.73-.73-.72-.73-.72-.72-.73-.72-.72-1.06-1.58c-.85-.68-1.7-1.35-2.52-2.06a40.11,40.11,0,0,1-3.68-3.81c-.67-.76-1.35-1.6-2.1-2.36-.09,0-.16.07-.17.06-.12-.18-.22-.36-.33-.55a9.15,9.15,0,0,0-1.4-1.1,1.86,1.86,0,0,0-.33-.19h-1.31a1.38,1.38,0,0,0-.25.17l-.29.28-.18.23a25.13,25.13,0,0,0-1.63,3.13,12,12,0,0,1-2.26,3.08c-2,2-4.68,2.61-7.41,3a39.44,39.44,0,0,1-5.34,1.8c-4.06,1-8.15,2.89-12.5,1.18-.5,1.06-1.43,2.12-1.41,3.16.1,5.4.32,10.81.74,16.2.71,9.32,1.61,18.62,2.5,28.73l10.46-1.78c1,14.79,2,29.23,3,43.66l0,0q2.55,5.09,5.09,10.16l1.45.72,1.45.72c3.4,2.54,1.88,6.18,2.12,9.43-1.85,5.66-3.51,11.4-5.64,17-1.66,4.36-4.6,8.32-5.71,12.77-1.29,5.13-1.2,10.61-1.71,15.93a57.18,57.18,0,0,1,1.37,6.67C402,397.76,411.58,414.32,416,432.4a38.08,38.08,0,0,0,1.77,5.86,16.72,16.72,0,0,0,2.9,5c2.81,3,1.39,11.12-2.54,12.5-10.52,3.69-21.1,7.19-31.63,10.85-2.92,1-5.71,2.41-8.62,3.46-.52.19-1.34-.43-2-.67l-1.63.78c-1.86,3-4.88,2.32-7.34,1.75-3.9-.89-7.62-2.56-11.43-3.84-4.95-1.65-9.33-.94-13.11,3-.9.93-2.39,1.3-3.61,1.92l-1.44,1.44-5.09.72c-.24-.23-.48-.47-.71-.71-.25-.48-.49-1-.74-1.46l-.73-.73,0,0-.74-.74v0l-.74-.75,0,0c-.71.27-1.92.39-2.06.84-1.51,4.87-2.93,9.77-4.17,14.71-.27,1.05.27,2.3.44,3.47l.51.5.93.77.73.72,0,0,.75.76,0,0,.75.75,0,0,.73.73v2.19l0,0c-.69,2.09-1.43,4.16-2.05,6.26-.38,1.28-.58,2.6-.85,3.91l0,0,2.91,3.63,1.45.73.73.73v0l.74.75,0,0,.75.74,0,0,.74.75v0l3.23,3.26-.36,1.42c-4.06-2.95-7-.73-10.11,1.13l-.73.72c-.24,1.08-.49,2.16-.73,3.25a1.07,1.07,0,0,0,.45.28q59.83,0,119.67.05a4.8,4.8,0,0,0,3-.88,67.75,67.75,0,0,0,6.36-6.32c3-3.43,7.61-5.08,11.19-3.16,2.43,1.3,4.26,1.58,6.45-.27.52-.43,2.15-.06,2.9.46a11,11,0,0,1,2.56,3c2.63,4,6.56,4.56,10.92,4.43,6.61-.19,13.22-.07,19.82-.26,4.12-.12,8.24-.57,12.35-.86l.57-1.1a12.34,12.34,0,0,1-2.41-1.53,15.21,15.21,0,0,1-1.69-2.52,40.68,40.68,0,0,0-5.65,2c-5,2.66-8.66,1-11.63-2s-4.32-8.21-1.69-12.27c2.54-3.91,5.3-7.67,8-11.46,1.44-2,3-3.91,4.5-5.83-7.47-6.49-14.3-12.91-21.67-18.62-4.18-3.24-6.09-6.83-6-12a6.89,6.89,0,0,0-1.58-4.49,45.85,45.85,0,0,0-6.85-5.62c-2.21-1.56-3.33-3.78-1.89-5.85,1.6-2.32,3.47-.55,5.11.85q7.52,6.42,15.18,12.66c2.78,2.28,4.9,1.83,5.37-1.7.83-6.19,4.14-8.88,10.05-9.1a2.74,2.74,0,0,0,1.07-.19c2.66-1.25,3.81-.18,4.61,2.46q3.57,11.75,7.52,23.35c2.32,6.89,6.72,8.69,13.38,5.52,2.46-1.17,3.84-1.16,4,2.05a4.12,4.12,0,0,0,1.69,2.55c3.46,2.53,7,4.91,11.08,7.7-.31-3.95,2-3.44,3.9-2.32a74.73,74.73,0,0,1,7.79,5.52c2.27,1.73,4.42,3.61,6.62,5.43l.89-1.07c-2.92-2.55-5.73-5.24-8.79-7.61-4.41-3.43-4.53-4.67-.17-8.62l12.89,9.68c.41-1,.31-1.33.09-1.53-5.17-4.58-10.4-9.1-15.49-13.77a2.9,2.9,0,0,1-.28-2.7,21.28,21.28,0,0,1,2.91-3.64c2.06,1.69,4,3.19,5.88,4.87,1.36,1.26,2.64,3,4.47,1.08s.69-3.42-1-4.79c-3.77-3-7.43-6.08-11.24-9-1.49-1.14-2.24-2.11-.94-3.83s2.42-2.19,4.22-.82,3.91,2.73,5.88,4.09l.17-.21c-1.46-1.5-2.86-3.08-4.41-4.5-3.63-3.33-3.68-3.8-.35-7.29l3.82,1.28L567,444c-.5-.26-1.22-.4-1.47-.82-2.44-4-1.6-6,2.91-7.16a32.73,32.73,0,0,0,6.2-1.77c1.48-.73,3.41-2.14,3.65-3.5C579.11,426.16,581.56,421.58,579,416.74Z"/><path class="cls-1" d="M491.78,199.22c0-2.35,0-4.12,0-5.89,0-5.29-.06-5.36-5.27-5.19-4.64.15-9.27.47-13.83.72-.78-4.73-.78-4.73,7.45-7.12-1.06-6.1-6.12-.36-8.38-3.1-.19-.66-.47-1.66-.74-2.59-3,.19-5.71.5-8.45.45a3.61,3.61,0,0,1-2.32-1.72,2.21,2.21,0,0,1,.53-2.11c5-2.14,9.11-6.52,15.15-6.32a17.12,17.12,0,0,0,4.13-.87c0-.42-.07-.83-.11-1.25a32.86,32.86,0,0,0-4.38-.58,35.28,35.28,0,0,0-4.49.51c-.39-2.26-.77-4-1-5.79-.81-7.45-.59-7.67,7-7.89.78,0,1.56-.09,2.34-.14v-.87c-1.05,0-2.11,0-3.16,0a27.32,27.32,0,0,1-4.32.16c-.69-.09-1.28-1-1.92-1.54.64-.65,1.2-1.69,1.95-1.87,1.38-.31,2.9,0,4.32-.18a12.46,12.46,0,0,0,2.84-1.08l-.27-1c-2.21.23-4.42.58-6.63.61-.71,0-1.44-.81-2.15-1.26a8.3,8.3,0,0,1,1.89-1.55,31.79,31.79,0,0,1,4-1.11c-2-2.1-5.7.5-5.78-3.33-.07-3.44,3-2.57,5-3.25-.76-.21-1.54,0-2.18-.25a20.28,20.28,0,0,1-2.79-1.41c.94-.72,1.77-1.76,2.83-2.09a13.69,13.69,0,0,1,4-.17c2.41,0,5,.45,4.7-3.5s-.63-4.48-5.07-4.44a19.76,19.76,0,0,1-3.61,0,7.33,7.33,0,0,1-2.17-1.27c.6-.75,1.05-1.8,1.84-2.19a30.29,30.29,0,0,1,4.53-1.57h-5.21c-1.83-5.59,3.88-4,5.77-6.65l-5.21.71,4.19-6.1-.42-.58-7.47,3.71c-2.46-5.43-4.64-10.62-7.14-15.65a39.6,39.6,0,0,0-3-4.79,22.52,22.52,0,0,1-7.9.29c-2.81-.24-5.42-.06-7.6,1.94a49.37,49.37,0,0,0-3.36,4,36.22,36.22,0,0,1-3.56,3.45c-2.59,2.21-5.38,4.15-8.06,6.23a30.67,30.67,0,0,0-2.75,2.42,1.57,1.57,0,0,0,.09.23l-.52.37-.06-.12a38.68,38.68,0,0,0-4.13,4.92,64,64,0,0,1-6.16,8.19c-2.08,2.12-4.5,3.87-6.67,5.89-2.35,2.2-3.81,4.74-5.5,7.43a9.83,9.83,0,0,1-3.72,3.9,10.51,10.51,0,0,1-4.25.89l.74.31c-2.62,1.19-5,.73-6.16-1.9-.8-1.84-1.32-4.4,2-4.92-.09-3.95-3-3-4.9-2.47-3.5.94-5.57.29-5.78-3.06L368.1,127.7c0-4.42-1.85-5.12-5.24-4.14-2.87.83-6,.87-8.84,1.64-1.34.36-2.47,1.61-3.63,2.53-.35.28-.44,1.09-.75,1.15-8,1.51-3.57,7.16-3.13,10.75,1.64,13.32,3.92,26.55,6,39.82.25,1.29.84,2.63.63,3.83-.18,1-1.31,1.8-2,2.69l-.75,1.69-1.11.48-1,1.45-.74.74,0,0-.74.74v0l-.74.75,0,0-.74.74v0c-.24.25-.48.49-.73.73l-1.45,2.18-.74.73h0l-.73.72c-3.82,4.41-1.63,8.06,1.45,11.6l3.11,2.2.31,0c10.39.49,20.78.79,31.14,1.58,3,.23,6,1.87,8.94,2.87l17-3.5c0-.44.22-.86.63-.92,3.45-.53,6.47-1.5,8.38-4.67,1-1.64,1.75-5,4-5.44a3.72,3.72,0,0,1,2.95,1.23,38,38,0,0,1,3.63,3.77,33.07,33.07,0,0,0,4.26,4.19,49.54,49.54,0,0,1,4.19,3.59,48.27,48.27,0,0,1,3.55,4.26c1.28,1.59,2.63,3.12,4,4.63,2.7,2.95,5.49,5.81,8,8.88,2,2.45,4,4.68,7.08,5.78a18.27,18.27,0,0,0,5.5,1l4.22-.22a15.82,15.82,0,0,0,7.31-2.86l4.44-8.28.42-.29-.27.44c-.28,1.17-.55,2.35-.83,3.53l.08.09a3.74,3.74,0,0,1,1.51-.77c.95-3.2,3.74-3.1,6.43-3.35L477,224.77c-.08-.28-.17-.56-.26-.83l7-3.09-3.54-1.92c-.41-3.13-.79-5.89-1.19-9l4,.68.11-.13c-1.59-2.67-8.13-2-4.92-7.52-4.6-1.95-3.43-6.08-4.66-9.08C481.08,190.75,485.71,196.49,491.78,199.22Z"/><path class="cls-1" d="M361.18,62.07c-8.52,1.39-17,3-26.22,4.6,3.24,20.73,6.45,41.32,9.67,61.9l1.23.63c1-1.11,2-2.26,3.09-3.32.6-.6,1.25-1.4,2-1.55,5.05-1,10.13-1.93,15.23-2.71a2.63,2.63,0,0,1,2.23,1.09c.74,2.87,2.81,2.54,4.87,2.29a18.09,18.09,0,0,0,4.25-.73c3.43-1.31,5-.11,5,3,3,0,5.9-.34,8.58.19.89.18,1.32,2.62,2,4.19a10.26,10.26,0,0,0-2.13,1.51c-1.12,1.35-1.5,2.68.59,3.48.05-.41.25-.77.64-.77,2.25,0,5,.13,6.91-1.33s3-4.08,4.26-6.12c3.37-5.3,9.23-8.29,12.94-13.32,2.06-2.79,3.88-5.75,6.12-8.42a44.11,44.11,0,0,1,7.7-6.72,65.28,65.28,0,0,0,8-6.69c2.08-2.16,3.54-5,6.3-6.39a11.75,11.75,0,0,1,6.48-.75,23,23,0,0,0,6.53-.06c-.17-.27-.35-.53-.53-.79l-.74.7.7-.74,3.1-5.12-.65-.81a35,35,0,0,1-5.16,1.79c-1.1.22-2.93.12-3.41-.56-2-2.86-3.67-6-5.46-9l-3.93,0,2.14-5.08c-1.43.34-3.92,1.45-4.31.95-1.24-1.64-1.71-3.85-2.48-5.85l-.18-.21c-3.9-.63-4.29-1.72-2-5.64l-.2-.2-5-1.47,7.84-6.18c-1.21-3.58-2.93-4.83-6.09-2.21a45.74,45.74,0,0,1-5,3.08c-.41-2.59-.75-4.76-1.16-7.38,1.27-1.4,2.93-3.24,4.6-5.07l-1-1a58.38,58.38,0,0,1-4.5,4.13,3.81,3.81,0,0,1-2.89.68c-.56-.16-1.07-1.54-1.09-2.39-.05-2.28.23-4.56.27-6.84.06-3,0-6,0-9l-1.42-.4-6.05,6.88a43.75,43.75,0,0,1-5.62-3.51,3.94,3.94,0,0,1-1-3.19,60.2,60.2,0,0,1,2-6.78l-1-.29a37.51,37.51,0,0,1-1.9,5.27c-.51,1-1.68,1.61-2.55,2.4-.58-1-1.48-2-1.68-3.11-.53-2.92-.77-5.89-1.12-8.83l-1.07.08v9.28c-2.75-1.34-4.75-2.77-7-3.31-4.94-1.2-6.15-4.9-6.8-9.09-.21-1.3.11-2.68-.1-4A6.57,6.57,0,0,0,383.86.08a2.91,2.91,0,0,0-2.44.72,5.05,5.05,0,0,0,.22,3.29c1.32,3.18,2.84,6.28,4.6,10.1-8.17-.16-7.59-8.42-12.83-10.92l4.5,9.49c-3.12-.48-6.28-2-8.57-1.11-4.75,1.76-6.82-.81-9.2-3.78-3.29-4.1-6.92-5.37-11.13-3.73,4.73,2.83,6.9,8.56,12.8,9.64a8.15,8.15,0,0,1-.17,2.6,11.68,11.68,0,0,1-4.68-.05c-2.2-.7-5.35.23-5.06,2.05.78,4.93.09,10.61,5.93,13.39.78.38,1.3,1.33,1.94,2l.74.73c.72,3.36,1.57,6.7,2.1,10.1.3,1.94-.35,3.63-2.84,3.67-2.71,0-2.5,1.53-1.76,3.35,7.63-.68,5.06-1.33,6.8,5.65C365.56,60.32,364.11,61.59,361.18,62.07ZM439.53,91l.73-.72.72-.72.73-.73.73-.71,1.17-2.19.9.79-2,1.43-.72.73-.72.72-.72.73-.73.72-.38.29Zm-4.88,4.63c.14,0,.22.33.32.52l-.47.41-.44-.71C434.26,95.77,434.49,95.59,434.65,95.64Z"/><path class="cls-1" d="M76.73,125.05c.88-2.38,2.07-3.69,4.89-2.23a4.08,4.08,0,0,0,3.44-.57c4.06-2.91,8-5.85,13.46-5.2.7.08,1.71-.75,2.26-1.41,8.4-10.18,12.75-22.11,15.38-34.87.73-3.55,2.62-6.86,4-10.28,1.8-4.58,4-9,5.29-13.76,2.14-7.59,3.78-15.33,5.48-23,.43-2,.08-4.12.48-6.1.45-2.23,1.35-4.37,2-6.55a10.57,10.57,0,0,0,.68-2.71c.08-2.93,0-5.86,0-8.69,2.65-.93,4.62-.48,4.95,1.87.45,3.24,2.63,4.13,5.16,4.68,4.17.91,8.42,1.45,12.55,2.49,1.89.48,4.18,1.34,5.24,2.79,5.2,7.13,13,10.45,20.22,14.7,2.67,1.57,5.25,2.55,8.1,1.79,6.35-1.71,12.61-3.74,18.92-5.61C212.14,31.51,215,30.6,218,30c1.24-.25,2.62.25,4.68.5.85-.23,2.47-.6,4.06-1.07,3.36-1,6.65-2.64,10.06-2.93a26.34,26.34,0,0,0,11.53-3.74c2.47-1.45,6-1,9.34-.64-3.38,1.19-6.71,2.59-10.17,3.48-2,.52-2.72,1.46-2.24,3.25s.35,4.55,3.4,4.16c4.88-.62,9.74-1.43,14.58-2.34.48-.09,1.17-1.5,1-2.12-.57-2.32.56-3.1,2.53-3.39,6.53-1,13.06-2,19.61-2.84,1.68-.21,3.82-1.13,4.89,1.65.26.66,2.44.58,4.41,1a14.86,14.86,0,0,0,1,3,31.69,31.69,0,0,0,2.57,3.58c1.54-1.31,3.69-2.34,4.47-4s.16-3.94.16-6.54l1.41,2.46h1.11l.71-6.76c.54,2.21,1,4,1.45,5.9,4.18-.23,2-3.54,2.91-5.74.53,4,2.92,3.44,5,2.2,1.75-1,3.09-1.52,5-.4.87.51,2.28.09,3.66.09,1.67,3.73,3.19,8.35,8.56,7.26,3-.62,5.88-2.61,8.66-4.22,3.13-1.82,3.48-4.8,2-8.33h1.42L347.32,17c3.52-.32,3.8,2.08,3.75,4.9-.1,6.1,3.79,11.75,8.71,11.91l0,0v.74c.52,3.73,1,7.47,1.51,10.83-2.27,1.58-5.79-.16-5.68,3.92.15,5,3.2,4.31,6.81,3.06.56,2.9,1,5.38,1.55,8.05-9.37,1.57-18.34,3.2-27.36,4.5-2.71.39-3.22,1.65-2.87,3.86q3.12,19.37,6.26,38.72c1,6.22,1.92,12.45,2.87,18.66l-5.87,1.2v4.08l-3.88.49q-1.65-9.27-3.25-18.15l-5.87.47-1.07-3.74c-4,.61-7.92,1.12-11.77,1.87-.52.11-1,1.42-1.12,2.23a11.94,11.94,0,0,0,.42,3c-2.4.38-4.52.67-6.63,1-7,1.19-14,2.44-20.95,3.61-3,.5-2.22,2.75-2.07,4.52.18,2,1.55,1.9,3.21,1.52a35.14,35.14,0,0,1,7.14-.89c.91,0,1.83,1.06,2.74,1.64A18,18,0,0,1,288,130.9q-16.56,3-33.13,6.07c-2.09.38-3.12,1.65-2.35,3.52a3.74,3.74,0,0,0,2.93,1.92c4.88-.39,9.74-1.14,14.93-1.81,1.09,7.32,2.16,14.57,3.22,21.7l-23.45,4.78c-.61-6.45-1.16-12.37-1.76-18.87-2.86.34-6.27.67-9.66,1.17-8.79,1.29-17.54,2.93-26.37,3.89-6,.66-6.2.09-6.39-6-.15-4.88-.44-9.76-.7-15.32l-20.06,2.72c-.21-2.55-.36-4.42-.54-6.64-1.79,0-3.33-.08-4.87,0-10.32.67-20.63,1.43-31,2.05-9.61.59-19.23,1-28.85,1.56-4.67.29-9.35.68-14,1.35-.89.13-2.06,1.67-2.24,2.71a43.76,43.76,0,0,0-.1,6.86l-25.75,1.64C77.5,137.27,77.12,131.16,76.73,125.05Z"/><path class="cls-1" d="M148.05,238.84c0,4.51.47,9,.75,13.63,1.53,0,2.6.07,3.66,0,8.25-.63,16.51-1.21,24.75-2,2.95-.28,3.88,1.18,4.06,3.68.11,1.61.18,3.24.29,5.27l14.77-1.12a13.08,13.08,0,0,0,.15-2.19c-.72-6.36-.73-6.36,5.25-8.66l13-5c1.53-2.2,2.68-1.72,3.42.56a6.85,6.85,0,0,1-3.18,8,1.72,1.72,0,0,1,.22,1.07s0,.06,0,.09c0,.21,0,.43.05.64v.11c0,.1,0,.2.05.3.07.37.15.74.25,1.11.19.75.44,1.48.69,2.21a34,34,0,0,1,1.42,4.53,1.76,1.76,0,0,1,0,.76c1.45,3.78,4.78,5.19,9.09,3.83,1.49-.47,3-.91,4.51-1.23.67-.14,1.89-.14,2,.17,2.15,4.74,5.84,1.31,8.75,1.61,2.22.23,4.52-.35,6.79-.56l.74-.71.69-.75a8.27,8.27,0,0,1,.08-1.8c1.17-4.68,2.1-9.14-.47-13.94-.88-1.64.15-5.37,1.6-7,2.7-2.94,1.78-5.93,1.63-9.05a4.34,4.34,0,0,0-.17-.69c-1.56-7.46-1.48-7.58,5.88-8.93,1.92-.35,3.26-1,3.34-3.4,0-1,1.23-2,1.9-3.06l.76-.68c-.23-1.36-.53-2.72-.68-4.09-.12-1-.23-2.94,0-3,3.79-.8,7.62-1.41,11.45-2,.25,0,.61.67.92,1l.71.73.74.7q11-1.51,22.05-3c2.24-.31,4.46-.68,6.83-1,.46,1.11.85,2.07,1.41,3.39l16.1-2.37c-.17-1.64-.21-3-.47-4.39-.79-4.08-.57-4.4,3.54-4.87.71-.08,1.41-.25,2.08-.38,2.5,5,5.65,5.56,9.84,1.82a13.19,13.19,0,0,1,2.4-1.39v0l.74-.74h0l.74-.73,1.45-2.18c.25-.24.49-.48.73-.73v0l.74-.74,0,0,.74-.75v0l.74-.74,0,0,.74-.74,1-1.45,1.11-.48.75-1.7v0c.25-2.18.51-4.36.76-6.54-.34-1.85-.71-3.69-1-5.55-2.33-14.08-4.69-28.15-7-42.24-.61-3.8-1-4.16-4.91-3a2.28,2.28,0,0,0-.19.7c.35,3-1.42,3.58-3.93,3.81s-3.27-.82-3.57-3.18c-.61-5-1.55-9.85-2.36-14.82-5.57,2.07-5.58,2.07-7.5-3.12l-10.31,1.84c2,4-.07,5-3.22,5.47-8.64,1.4-17.26,3-26.05,4.49.28,1.24.51,2.25.76,3.38l11.35-2.44.73.95c-1.33,1.78,2.7,4.86-1.67,5.72q-18.3,3.58-36.7,6.64c-2.42.41-2.81,1.22-2,3.35,5-.72,9.83-1.52,14.72-2,.89-.09,2.6.92,2.73,1.63,1.2,6.49,2.24,13,3,19.56a3.72,3.72,0,0,1-1.9,3.06,126.17,126.17,0,0,1-14.57,3.41c-7.23,1.16-7.27,1-6.62,8a15.35,15.35,0,0,0,.47,3.19c.9,2.87-.09,4.36-3.06,4.61a10.31,10.31,0,0,0-2.5.31c-4.54,1.56-11-.28-12.36,7,0,.09-.44.11-.67.17l-2.53.78c-.82,2.06-1.29,3.24-1.75,4.42l-5.18,2.14c.12,1.13.17,2.43.41,3.69.65,3.42-.22,4.64-3.74,4.93-1.32.12-2.68-.09-4,.09-5,.72-10.54-2.78-15.08,1.9-.39.39-1.4.13-2.11.25-4.39.71-8.16,2.28-11.08,6-1.62,2.05-4.21,3.34-6.36,5-2.12,2.46-4,.23-5.73-.5-5.69-2.32-11.27-5.12-17.5-1.71l-.7.71c0,.84-.08,1.68-.08,2.52,0,5.66-1.45,7.82-6.79,9.62-2.38.8-4.94,1.06-7.33,1.8a24.73,24.73,0,0,0-4,2.06c1.44.43,2.91,1.3,4.32,1.21C147.26,235,148.06,236,148.05,238.84Z"/><path class="cls-1" d="M249,307.07c.67-3.34.09-6.93,0-10.31l1.06-.13,0,.69c.89-2.21-1.59-5.05-.28-7.42-.47-1.36-.48-3.09-1.34-4.25a4.42,4.42,0,0,1,.77.85,3.72,3.72,0,0,1,.77-2.34l0-.33h.35c1.6-1.09,4.63-.28,2.1-2.93l.06-.1c-1.86-3.1-8.23-7.35-7.35-10.82l-2.12-2.7c-2.92-.26-9.38,3.85-10.71-1-4.87-.24-13.44,3.43-16.61-3.43-2.14-2.76-3-7.32-3.52-10.9-1.13.28-2.29.49-3.43.76-.13-.53-.25-1.06-.37-1.59,1.17-.23,2.32-.55,3.5-.67,3.88-.24,7.46-6.08,2.84-8-3.1,3.54-8.22,4-12.34,5.89-5.32,2-5.17,1.94-4.67,7.7-.38,5.54-7.2,4-11.07,4.47-8.21,1-6.1-2.49-7.14-8.91l-38.31,3.74c2.82,44.64,4.79,89.29,6.69,134-1.55,4.66-14.94,2-19.49,3.1-22.67.61-46.8,6.17-68.9,1.36l.1.06L58,393.11l.09.05-3.64-2.28.07.06c-1-.6-1.77-2-2.93-2.08l-24.33.37c-5.21,44.22,7.55,87.73,18,130.31.9,3.11,2,4.2,5.33,4.19,41.48-.81,83.2,1.31,124.57-1,4.28-6.49,10.48-8.88,17.72-10.86,4.79-4-8.26-10-12.1-8.69-5.51-.87-17.23,2.23-18.77-4.93-3.85-14-5.52-28.21-3.15-42.68L229,453.69c.11-1.73.24-3.6.4-6.05,5.84-1.31,18.35,4.05,20.64-2.75a55.79,55.79,0,0,1,34.54-36.6,1.08,1.08,0,0,1,1-1.11c7.16-.3.37-4.06-2.74-4.64s-6.48-.37-9.63-.58c-6.51.49-2.32-11.7-3.32-15.75a17.21,17.21,0,0,1-2.11-2l-4.89.33c.94-1.73,1.45-2.68,2-3.63,0,.79.09,1.57.12,2.13a2.75,2.75,0,0,0,2.14-.11c-1-5.75,1.29-11.6.37-17.37-3.89-3.72-8.42-6.75-11.95-10.91a15.38,15.38,0,0,1-.09,2.09c-.6-7.12-9-6.76-13-10.55l.65.63,1.8.38c-4.94-2.19-11.07-7-10.67-12.94.72-4.14,5.23-3.62,7.38-6.27l.21.21c4.22-5.06,4.81-11.71,6.28-17.87m17,69.56.29.19-.55.78Z"/><path class="cls-1" d="M329.85,386.53c.66-.95,1.24-1.95,1.9-2.9a15.33,15.33,0,0,0,1.59-2.6.76.76,0,0,1,.54-.49c.16-1.72.3-3.45.54-5.15.4-2.83.86-5.64,1.31-8.45a1.41,1.41,0,0,1-.06-.63c.23-1.1.54-2.18.81-3.27V363c0-.06,0-.12,0-.19l.09-.42q.09-.39.15-.78c0-.25.07-.51.09-.77v-.12c0-.12,0-.23,0-.34a1,1,0,0,1,.46-1,1.11,1.11,0,0,0,0-.17,5.45,5.45,0,0,0-.61-2.06c-.3-.81-1.07-1.71-.9-2.38,1.06-4.32,2.31-8.59,3.55-12.86.19-.66.59-1.75,1-1.79,5.42-.57,4.73-5.62,6.56-8.79a21,21,0,0,0,1-2.3l-3.51-.54.43-.57a20.56,20.56,0,0,1-3.45-3,4.94,4.94,0,0,1-1-3.41,3.33,3.33,0,0,1,2.23-2.1,39.44,39.44,0,0,1,6.24-.09c-.23-1.67-.47-2.89-.56-4.12-.54-7.56-1-15.11-1.58-22.66-.89-11.74-1.86-23.47-2.77-35.2-.54-6.95-1-13.9-1.55-20.85-.72-9.34-1.38-18.69-2.24-28-.48-5.14-2.17-6.56-7.19-6.63-1.78,0-3.19-.07-3.85-2.33-.23-.8-2.31-1.05-4.32-1.87.39,2.84.61,4.58.87,6.31.34,2.21-.54,3.38-2.81,3.69-4.64.62-9.25,1.56-13.9,1.9-1.21.08-2.54-1.59-4.48-2.9-6.78,1.15-14.58,2.55-22.42,3.69-1.36.2-2.88-.72-4.33-1.13l-.69-.76-.73-.71-11.84,1.11c1.6,3.05,4.43,5.45.3,7.49a2.69,2.69,0,0,1-.69.06c-.3,1.9-.62,3.78-.89,5.68-.44,3-3.1,2.31-4.85,2.73-5.24,1.26-5.19,1.11-4.11,6.14.87,4.07,1.85,7.9-1.88,11.66-2.15,2.17-2.38,5.84,0,8.95,1.5,2,2.06,4.11.38,6.6-1.2,1.76-1.65,4-2.44,6.08l-.76.68-.7.75-3.32,2.12c.36.79.73,1.63,1.11,2.48a53.61,53.61,0,0,0,5.23,6.7,21.57,21.57,0,0,1,3.21,4.11l2.3,1.19c-.36.69-.62,1.87-1.12,2s-1.28.24-1.93.33a4.66,4.66,0,0,1-1.63.47,2.81,2.81,0,0,0-1,.22c-.35.25-.38.86-.39,1.25a10.21,10.21,0,0,0,.46,2.73.92.92,0,0,1,.08,1.07h0c.91,1.87,1,3.29.24,4.43a9.65,9.65,0,0,1,.36,1.58,2.61,2.61,0,0,1-.55,2.1,7.2,7.2,0,0,0-.55.56,3.54,3.54,0,0,0-.23,1.59c0,.1,0,.2,0,.3.82,1.24,1.26,2.49.28,3.78a8.25,8.25,0,0,1-.05,1.11,32.54,32.54,0,0,1-1.39,5.16l.39.31a66,66,0,0,1,5.78,4.29c.36.33-.3,1.79-.49,2.72l-3.61-.76c.07-.35.13-.7.2-1h1.64l.18-.21-3.77-4.93-.32-.38c0,.13-.08.25-.11.38-1,3.79-1.22,7.68-2.73,11.34a39.39,39.39,0,0,1-2.59,5.1,7.76,7.76,0,0,1-2.68,2.92,21.18,21.18,0,0,1-3.33,1.41L236,334.84l-.09.22s0,0,0,0c.43,4,4.47,7.78,7.83,9.5,1.82.94,3.78,1.58,5.59,2.54a21.29,21.29,0,0,1,3.19,2.16,5.23,5.23,0,0,1,1.7,1.44l.23.2c3.09,2.81,5.73,6.1,9,8.74,1.46,1.19,3.06,2.19,4.42,3.49a15.09,15.09,0,0,1,3.09,4.3,1,1,0,0,1-1.21,1.45c-.12.76-.24,1.51-.34,2.28a17.16,17.16,0,0,1,.15,2A6.08,6.08,0,0,1,269,376c-.12,1.68-.2,3.37-.19,5a5.63,5.63,0,0,0,.08,1c1.42-.66,2.78-.9,4,1.63.89,1.08,1.77,2.17,2.65,3.25l-2.47.85a7,7,0,0,1-.54,4,8.37,8.37,0,0,0-1.14,3.47,6,6,0,0,0,1.24,3.29c1.28,1.53,3.48,1.64,5.33,1.68a28.13,28.13,0,0,1,5.28.36c.87,0,1.73-.1,2.58-.2,4.11-.47,5.72,1.53,6.59,5a11.23,11.23,0,0,0,.7,1.64l0,0,.75.75,0,0,.74.73,1.46,2.19.73.73,0,0,.76.75,0,0,.75.76,0,0,.73.73c1.93-.87,4.25-1.32,5.71-2.69A25.9,25.9,0,0,1,317.35,404a7.32,7.32,0,0,0,1.71-.62.84.84,0,0,1,.42-1.15,1.78,1.78,0,0,0,.61-.49,21.62,21.62,0,0,1,1.06-2.54,15.68,15.68,0,0,1,.81-1.58c1.15-1.92,2.48-3.75,3.82-5.55S328.56,388.42,329.85,386.53Z"/><path class="cls-1" d="M417.83,443.86c-1.42-4.33-2.85-8.65-4.26-13-4.2-12.92-8.7-25.75-12.47-38.8-1.86-6.42-2.37-13.22-3.5-19.86-.25-6.14-.39-12.28,2.11-18.11l.75-1.44,4.32-9.39c-.93-1.77-.76-3.12,1.43-3.68q2.27-6.53,4.52-13.06-.42-3.65-.82-7.27l-3-2.95a4.72,4.72,0,0,0-.05-.64c-4.55-1.95-4.18-6.37-5.07-10.16l0,0c-.48-.9-1.3-1.76-1.37-2.69-.83-10.63-1.51-21.28-2.31-31.92-.16-2.12-.62-4.23-1-6.53-2.53.19-4.88.35-7.23.54s-3.32-.58-3.38-3c-.13-4.56-.53-9.1-.81-13.65l-.51-1.51q-.48-8.67-.94-17.33l-.51-1.51c-.06-2.53.07-5.07-.23-7.57-.72-6.15-.8-6.14-7-6.18h-16c-1.64.12-3.83,2.06-4.43-1.32l-9.63-2.28-.32,0-2.36-.08-1.58.81q1.19,18.46,2.38,36.93c.16.51.33,1,.5,1.52,1.22,16,2.51,31.95,3.64,47.94.49,6.93.63,13.89.93,20.83l1.05.73-1.06.71c-1.5.25-3,.39-4.49.78a28.81,28.81,0,0,0-3.48,1.41l3.43,1.48,3.72,3.49a56.72,56.72,0,0,1-.84,6.26,57.92,57.92,0,0,1-2.13,6c.1,2.64.1,2.64-1.4,2.29-3.06-.52-4.61.79-5.06,3.85-.34,2.36-1,4.67-1.53,7,.27,1.2.54,2.4.82,3.6l-.48,4.06h0a11.43,11.43,0,0,1-.42,3.29c-.15.62-.31,1.23-.47,1.85v.05l.35.24-.49.34c0,.05,0,.11-.05.17v0c0,.06,0,.12-.05.18s-.05.24-.07.36a1,1,0,0,1-.51.74q-.59,5.6-1.16,11.19a.61.61,0,0,1,.45.07c.43.26.42.93.32,1.35a12.34,12.34,0,0,1-2.93,4.89c-.67,1-1.28,2-2,3-1.35,1.93-2.81,3.78-4.2,5.68-.3.4-.61.81-.91,1.23l0,.08-.16.08a31.18,31.18,0,0,0-3,4.72c-.1.2-.18.4-.26.6v0L324.2,402c5.41.4,10.84,1.22,16.23,1.05,4.31-.14,6.65,1.43,6.31,5.73-.07.83,0,1.67-.05,2.51l0,1.52c2.52,2,1.71,3.11-1,3.57s-5.14.69-7.32,1c-.4,2.41-.77,4.73-1.15,7.05v0l-.78,3.52V431c1,2.86,1.94,5.73,2.9,8.59l-2.13,2.18v0c-.73.95-1.47,1.89-2.21,2.84-.71.74-1.42,1.49-2.12,2.24.94,4.14.51,7.91-2.92,10.87l.81,2.14c7-.39,7.73,5,8.79,10.47,2-1.32,3.46-2.47,5.07-3.3,5.43-2.79,10.89-1,15.65,1.24a21.45,21.45,0,0,0,13.86,1.88l1.63-.78c9.45-3.3,18.91-6.56,28.33-9.91,4.82-1.72,9.57-3.6,14.36-5.41l.64-.66.79-8Z"/><path class="cls-1" d="M52.14,388.89a1,1,0,0,0-.51,0c-8.14-3.23-16.51-1.28-24.87-.12-4.39-47.56-9.09-94.92-12.22-142.56,44-3.85,87.78-7.32,132-9.89.29,5.39.56,10.66.86,16.26L140,254.48c2.2,44.89,5.06,90,7.23,135-28.89,4.51-58.52,2.71-87.7,4.4,0,0-1.06-.53-1.44-.72l.09.05-3.64-2.28.07.06C53.75,390.26,52.94,389.58,52.14,388.89Z"/></g></g></svg>